<svg 
 xmlns="http://www.w3.org/2000/svg"
 xmlns:xlink="http://www.w3.org/1999/xlink"
 width="20px" height="34px">
<path fill-rule="evenodd"  fill="#ffffff"
 d="M16.730,6.078 L20.000,6.078 L20.000,0.004 L14.059,0.004 C13.563,-0.017 7.521,-0.134 5.955,5.942 C5.933,6.006 5.432,7.451 5.432,10.826 L-0.000,10.843 L-0.000,17.213 L5.439,17.197 L5.439,34.000 L13.748,34.000 L13.748,17.212 L19.247,17.212 L19.247,10.825 L13.748,10.825 L13.748,8.815 C13.748,7.566 14.265,6.078 16.730,6.078 ZM17.872,12.223 L17.872,15.812 L12.373,15.812 L12.373,32.600 L6.814,32.600 L6.814,15.794 L1.375,15.810 L1.375,12.238 L6.829,12.222 L6.814,11.511 C6.743,7.935 7.244,6.431 7.266,6.359 C8.618,1.125 13.778,1.388 13.999,1.402 L18.625,1.404 L18.625,4.679 L16.730,4.679 C13.518,4.679 12.374,6.816 12.374,8.815 L12.374,12.223 L17.872,12.223 L17.872,12.223 Z"/>
</svg>
