<svg 
 xmlns="http://www.w3.org/2000/svg"
 xmlns:xlink="http://www.w3.org/1999/xlink"
 width="26px" height="26px">
<path fill-rule="evenodd"  fill="#ffffff"
 d="M18.447,26.000 L7.552,26.000 C3.388,26.000 -0.000,22.612 -0.000,18.447 L-0.000,7.552 C-0.000,3.388 3.388,-0.000 7.552,-0.000 L18.447,-0.000 C22.612,-0.000 26.000,3.388 26.000,7.552 L26.000,18.447 C26.000,22.612 22.612,26.000 18.447,26.000 ZM23.969,7.552 C23.969,4.508 21.492,2.031 18.447,2.031 L7.552,2.031 C4.508,2.031 2.031,4.508 2.031,7.552 L2.031,18.447 C2.031,21.492 4.508,23.968 7.552,23.968 L18.447,23.968 C21.492,23.968 23.969,21.492 23.969,18.447 L23.969,7.552 ZM20.109,6.906 C19.548,6.906 19.093,6.451 19.093,5.890 C19.093,5.330 19.548,4.875 20.109,4.875 C20.670,4.875 21.125,5.330 21.125,5.890 C21.125,6.451 20.670,6.906 20.109,6.906 ZM13.000,20.008 C9.136,20.008 5.992,16.864 5.992,13.000 C5.992,9.136 9.136,5.992 13.000,5.992 C16.864,5.992 20.008,9.136 20.008,13.000 C20.008,16.864 16.864,20.008 13.000,20.008 ZM13.000,8.023 C10.256,8.023 8.023,10.256 8.023,13.000 C8.023,15.744 10.256,17.976 13.000,17.976 C15.744,17.976 17.976,15.744 17.976,13.000 C17.976,10.256 15.744,8.023 13.000,8.023 Z"/>
</svg>
