<svg 
 xmlns="http://www.w3.org/2000/svg"
 xmlns:xlink="http://www.w3.org/1999/xlink"
 width="28px" height="23px">
<path fill-rule="evenodd"  fill="#ffffff"
 d="M27.723,2.684 C27.498,2.530 27.202,2.535 26.984,2.699 C26.834,2.811 26.610,2.912 26.349,2.999 C27.209,1.926 27.222,1.209 27.209,1.033 C27.192,0.803 27.053,0.600 26.846,0.502 C26.638,0.404 26.394,0.426 26.208,0.561 C25.034,1.405 23.860,1.589 23.175,1.613 C22.060,0.572 20.617,0.002 19.085,0.002 C15.768,0.002 13.070,2.711 13.070,6.042 C13.070,6.283 13.084,6.524 13.113,6.762 C7.578,6.624 3.090,1.384 3.045,1.330 C2.912,1.172 2.712,1.089 2.505,1.107 C2.301,1.126 2.117,1.242 2.013,1.421 C0.605,3.840 1.180,6.131 2.145,7.734 C1.966,7.638 1.749,7.631 1.562,7.725 C1.350,7.830 1.214,8.047 1.210,8.285 C1.169,10.826 2.324,12.349 3.489,13.236 C3.404,13.272 3.326,13.326 3.262,13.396 C3.110,13.563 3.058,13.799 3.124,14.015 C3.934,16.640 5.838,17.624 7.173,17.992 C5.642,19.077 3.747,19.331 2.307,19.331 C1.388,19.331 0.755,19.222 0.749,19.221 C0.462,19.169 0.174,19.324 0.057,19.594 C-0.060,19.865 0.022,20.180 0.257,20.357 C3.146,22.539 6.634,22.997 9.051,22.997 C10.962,22.997 12.290,22.717 12.357,22.702 C24.769,19.791 25.240,8.612 25.220,6.575 C27.546,4.428 27.917,3.590 27.975,3.381 C28.048,3.118 27.947,2.838 27.723,2.684 ZM24.152,5.829 C24.008,5.961 23.932,6.150 23.945,6.346 C23.954,6.466 24.632,18.514 12.081,21.459 C12.069,21.462 10.818,21.723 9.051,21.723 C7.404,21.723 5.224,21.497 3.144,20.580 C5.048,20.458 7.384,19.871 9.064,18.004 C9.232,17.817 9.273,17.548 9.171,17.317 C9.069,17.087 8.840,16.939 8.589,16.939 C8.471,16.939 5.974,16.909 4.724,14.577 C5.303,14.595 5.827,14.509 6.216,14.331 C6.466,14.217 6.613,13.956 6.583,13.683 C6.554,13.409 6.353,13.185 6.085,13.128 C5.950,13.098 3.075,12.441 2.557,9.395 C3.007,9.567 3.556,9.687 4.086,9.609 C4.332,9.572 4.535,9.394 4.603,9.154 C4.671,8.913 4.593,8.655 4.404,8.493 C4.277,8.385 1.536,5.991 2.727,2.859 C4.324,4.488 8.669,8.321 13.909,8.025 C14.098,8.013 14.273,7.918 14.384,7.764 C14.496,7.611 14.534,7.414 14.487,7.229 C14.389,6.844 14.339,6.444 14.339,6.043 C14.339,3.415 16.468,1.277 19.085,1.277 C20.367,1.277 21.568,1.782 22.468,2.700 C22.585,2.819 22.743,2.888 22.910,2.891 L23.007,2.891 C23.474,2.891 24.204,2.834 25.042,2.563 C24.774,2.848 24.425,3.169 23.973,3.520 C23.750,3.693 23.668,3.991 23.769,4.254 C23.870,4.517 24.134,4.683 24.410,4.660 C24.513,4.651 24.965,4.612 25.524,4.511 C25.172,4.873 24.723,5.309 24.152,5.829 Z"/>
</svg>
