<svg 
 xmlns="http://www.w3.org/2000/svg"
 xmlns:xlink="http://www.w3.org/1999/xlink"
 width="29px" height="22px">
<path fill-rule="evenodd"  fill="#ffffff"
 d="M23.233,22.000 L5.767,22.000 C2.587,22.000 -0.000,19.320 -0.000,16.027 L-0.000,5.973 C-0.000,2.680 2.587,-0.000 5.767,-0.000 L23.233,-0.000 C26.413,-0.000 29.000,2.680 29.000,5.973 L29.000,16.027 C29.000,19.320 26.413,22.000 23.233,22.000 ZM27.816,5.973 C27.816,3.354 25.760,1.222 23.233,1.222 L5.767,1.222 C3.240,1.222 1.183,3.354 1.183,5.973 L1.183,16.027 C1.183,18.646 3.240,20.778 5.767,20.778 L23.233,20.778 C25.760,20.778 27.816,18.647 27.816,16.027 L27.816,5.973 ZM11.544,16.792 C11.451,16.848 11.348,16.876 11.245,16.876 C11.143,16.876 11.041,16.849 10.950,16.795 C10.767,16.687 10.653,16.484 10.653,16.265 L10.653,6.347 C10.653,6.127 10.767,5.925 10.951,5.816 C11.135,5.708 11.361,5.709 11.544,5.820 L19.743,10.779 C19.925,10.888 20.036,11.090 20.036,11.307 C20.036,11.524 19.925,11.725 19.743,11.834 L11.544,16.792 ZM11.837,7.413 L11.837,15.198 L18.273,11.306 L11.837,7.413 Z"/>
</svg>
