<?xml version="1.0" encoding="utf-8"?>
<!-- Generator: Adobe Illustrator 23.0.3, SVG Export Plug-In . SVG Version: 6.00 Build 0)  -->
<svg version="1.1" id="Layer_1" xmlns="http://www.w3.org/2000/svg" xmlns:xlink="http://www.w3.org/1999/xlink" x="0px" y="0px"
	 viewBox="0 0 133.13 38.52" style="enable-background:new 0 0 133.13 38.52;" xml:space="preserve">
<style type="text/css">
	.st0{fill:#58595B;}
</style>
<g>
	<g>
		<path class="st0" d="M8.02,4.3h3.01c0.2,0,0.36-0.16,0.36-0.35c0-0.2-0.16-0.36-0.36-0.36H8.02c-0.19,0-0.36,0.16-0.36,0.36
			C7.67,4.14,7.83,4.3,8.02,4.3z M9.53,30.71c-0.86,0-1.57,0.71-1.57,1.57c0,0.86,0.7,1.57,1.57,1.57c0.87,0,1.57-0.7,1.57-1.57
			C11.1,31.41,10.4,30.71,9.53,30.71z M1.84,29.36h15.38V6.62H1.84V29.36z M51.14,21.9c-0.73,0-1.39,0.24-1.98,0.72
			c-0.59,0.49-0.98,1.12-1.16,1.91c-0.09,0.37-0.13,0.67-0.13,0.9v2.21c0,0.97,0.29,1.79,0.89,2.45c0.59,0.66,1.36,1,2.31,1
			c1.11,0,1.98-0.43,2.6-1.29c0.62-0.86,0.93-1.99,0.93-3.4c0-1.29-0.29-2.36-0.87-3.2C53.08,22.34,52.22,21.9,51.14,21.9z
			 M105.06,21.71c-1.18,0-2.09,0.53-2.7,1.58c-0.54,0.87-0.8,1.93-0.8,3.19c0,1.22,0.26,2.27,0.8,3.14
			c0.63,1.05,1.53,1.58,2.68,1.58c1.12,0,2.01-0.53,2.65-1.61c0.55-0.88,0.83-1.94,0.83-3.16s-0.26-2.27-0.79-3.14
			C107.1,22.24,106.22,21.71,105.06,21.71z M65.76,21.9c-0.73,0-1.39,0.24-1.98,0.72c-0.59,0.49-0.98,1.12-1.17,1.91
			c-0.09,0.37-0.13,0.67-0.13,0.9v2.21c0,0.97,0.29,1.79,0.89,2.45c0.59,0.66,1.36,1,2.31,1c1.12,0,1.98-0.43,2.61-1.29
			c0.62-0.86,0.93-1.99,0.93-3.4c0-1.29-0.29-2.36-0.88-3.2C67.69,22.34,66.84,21.9,65.76,21.9z M35.21,17.14h-0.05
			c-0.19,0.78-0.47,1.94-0.88,3.48l-1.53,4.82h4.95l-1.55-4.82C35.98,20.12,35.67,18.96,35.21,17.14z M127.48,21.57
			c-0.96,0-1.75,0.41-2.35,1.21c-0.49,0.64-0.79,1.4-0.88,2.29h6.16c0.02-0.87-0.17-1.63-0.57-2.27
			C129.33,21.98,128.54,21.57,127.48,21.57z M48.25,8.44c0.04-0.13,0.04-0.25,0.04-0.38V7.12C47.07,7.1,45.9,7.36,45.9,8.4
			c0,0.68,0.44,0.99,0.98,0.99C47.59,9.38,48.08,8.93,48.25,8.44z M32.12,4.13c-0.18-0.58-0.34-1.22-0.48-1.77h-0.03
			c-0.14,0.55-0.3,1.21-0.45,1.77l-0.73,2.34h2.43L32.12,4.13z M130.21,3.46c2.22,0,2.96,1.83,2.96,3.34c0,0.32-0.03,0.58-0.06,0.73
			h-4.59c0.04,1.24,1,1.77,2.11,1.77c0.8,0,1.37-0.13,1.9-0.31l0.25,1.18c-0.59,0.25-1.41,0.44-2.39,0.44
			c-2.22,0-3.53-1.36-3.53-3.46C126.87,5.24,128.02,3.46,130.21,3.46z M102.75,3.61l0.08,1.03h0.04c0.31-0.54,1.05-1.18,2.19-1.18
			c1.2,0,2.43,0.77,2.43,2.94v4.07h-1.73V6.6c0-0.98-0.37-1.73-1.31-1.73c-0.69,0-1.17,0.49-1.35,1.01
			c-0.06,0.14-0.08,0.35-0.08,0.55v4.04h-1.73V5.65c0-0.79-0.03-1.45-0.06-2.04H102.75z M84.58,3.46c2.22,0,2.96,1.83,2.96,3.34
			c0,0.32-0.03,0.58-0.06,0.73h-4.59c0.04,1.24,1,1.77,2.11,1.77c0.8,0,1.36-0.13,1.9-0.31l0.25,1.18
			c-0.59,0.25-1.41,0.44-2.39,0.44c-2.22,0-3.53-1.36-3.53-3.46C81.23,5.24,82.38,3.46,84.58,3.46z M77.49,0.48h1.73v9.99h-1.73
			V0.48z M63.76,4.68c-0.68,0-1.38,0.21-1.84,0.51l-0.34-1.13c0.51-0.31,1.39-0.61,2.48-0.61c2.2,0,2.83,1.39,2.83,2.9v2.46
			c0,0.62,0.03,1.22,0.11,1.65h-1.56l-0.13-0.76h-0.04c-0.41,0.53-1.13,0.91-2.03,0.91c-1.38,0-2.15-1-2.15-2.04
			c0-1.72,1.53-2.6,4.07-2.59V5.88C65.16,5.43,64.97,4.68,63.76,4.68z M53.53,0.76c0.59,0,0.96,0.41,0.97,0.94
			c0,0.51-0.38,0.93-0.99,0.93c-0.58,0-0.96-0.42-0.96-0.93C52.56,1.17,52.95,0.76,53.53,0.76z M54.39,3.61v6.85h-1.73V3.61H54.39z
			 M30.59,0.98h2.21l3.08,9.48H34l-0.86-2.69h-3l-0.82,2.69h-1.79L30.59,0.98z M19.06,32.43c0,1.67-1.36,3.03-3.03,3.03h-13
			C1.36,35.45,0,34.1,0,32.43V3.55c0-1.67,1.36-3.03,3.03-3.03h13c1.67,0,3.03,1.36,3.03,3.03V32.43z M39.95,33.12l-1.72-5.42h-6
			l-1.64,5.42h-3.06l5.93-18.45h3.67l5.97,18.45H39.95z M40.62,10.47h-1.7l-2.55-6.85h1.87l1.11,3.48c0.2,0.61,0.34,1.15,0.46,1.72
			h0.04c0.13-0.56,0.28-1.1,0.46-1.72l1.1-3.48h1.82L40.62,10.47z M44.18,8.58c0-1.72,1.53-2.6,4.07-2.59V5.88
			c0-0.45-0.18-1.2-1.39-1.2c-0.68,0-1.38,0.21-1.84,0.51l-0.34-1.13c0.51-0.31,1.39-0.61,2.48-0.61c2.19,0,2.83,1.39,2.83,2.9v2.46
			c0,0.62,0.03,1.22,0.11,1.65h-1.56l-0.13-0.76h-0.04c-0.41,0.53-1.13,0.91-2.03,0.91C44.96,10.62,44.18,9.62,44.18,8.58z
			 M55.76,31.67c-1.1,1.16-2.47,1.75-4.1,1.75c-1.77,0-3.03-0.63-3.8-1.89v6.99h-2.95V24.19c0-1.42-0.04-2.88-0.11-4.37h2.6
			l0.16,2.11h0.05c0.99-1.58,2.48-2.38,4.49-2.38c1.57,0,2.88,0.62,3.93,1.86c1.05,1.24,1.57,2.88,1.57,4.9
			C57.61,28.58,56.99,30.36,55.76,31.67z M58.83,10.47h-1.73V0.48h1.73V10.47z M70.37,31.67c-1.1,1.16-2.47,1.75-4.1,1.75
			c-1.76,0-3.03-0.63-3.79-1.89v6.99h-2.96V24.19c0-1.42-0.04-2.88-0.11-4.37h2.59l0.17,2.11h0.05c0.99-1.58,2.48-2.38,4.49-2.38
			c1.57,0,2.88,0.62,3.93,1.86c1.05,1.24,1.58,2.88,1.58,4.9C72.22,28.58,71.61,30.36,70.37,31.67z M72.4,10.62
			c-0.89,0-1.67-0.34-2.17-1.18h-0.03l-0.08,1.03h-1.48C68.68,10,68.7,9.24,68.7,8.54V0.48h1.73v4.08h0.03
			c0.42-0.66,1.17-1.1,2.2-1.1c1.67,0,2.87,1.39,2.86,3.48C75.51,9.4,73.95,10.62,72.4,10.62z M87.28,31.78
			c-1.21,1.08-2.88,1.61-5.03,1.61c-1.99,0-3.58-0.38-4.78-1.15l0.69-2.46c1.29,0.76,2.72,1.15,4.26,1.15c1.12,0,1.98-0.25,2.6-0.75
			c0.62-0.5,0.93-1.17,0.93-2.02c0-0.74-0.26-1.37-0.76-1.88c-0.52-0.51-1.36-0.98-2.54-1.42c-3.23-1.2-4.84-2.96-4.84-5.28
			c0-1.52,0.56-2.76,1.71-3.73c1.14-0.96,2.65-1.45,4.53-1.45c1.68,0,3.07,0.29,4.19,0.87l-0.75,2.41
			c-1.04-0.56-2.22-0.85-3.54-0.85c-1.04,0-1.86,0.26-2.45,0.76c-0.49,0.46-0.74,1.02-0.74,1.68c0,0.72,0.28,1.33,0.85,1.81
			c0.49,0.44,1.39,0.91,2.68,1.42c1.59,0.63,2.76,1.39,3.51,2.25c0.75,0.86,1.12,1.92,1.12,3.2C88.92,29.52,88.37,30.8,87.28,31.78z
			 M97.7,22.03h-3.26v6.47c0,1.64,0.58,2.45,1.73,2.45c0.53,0,0.96-0.04,1.31-0.13l0.08,2.24c-0.58,0.22-1.35,0.33-2.3,0.33
			c-1.16,0-2.08-0.35-2.74-1.07c-0.66-0.71-0.99-1.91-0.99-3.58v-6.71H89.6v-2.21h1.94v-2.43l2.9-0.88v3.31h3.26V22.03z
			 M96.04,10.62c-1.93,0-3.43-1.32-3.43-3.53c0-2.25,1.48-3.63,3.55-3.63c2.04,0,3.41,1.44,3.41,3.52
			C99.56,9.49,97.78,10.62,96.04,10.62z M109.83,31.4c-1.23,1.35-2.85,2.02-4.87,2.02c-1.96,0-3.52-0.65-4.67-1.94
			c-1.16-1.29-1.73-2.93-1.73-4.9c0-2.06,0.6-3.75,1.79-5.06c1.2-1.32,2.8-1.97,4.83-1.97c1.96,0,3.53,0.64,4.71,1.94
			c1.13,1.25,1.69,2.88,1.69,4.87C111.58,28.41,111,30.08,109.83,31.4z M112.89,3.61h0.97V2.33l1.7-0.48v1.76h1.65v1.29h-1.65v3.03
			c0,0.84,0.22,1.27,0.89,1.27c0.31,0,0.48-0.01,0.68-0.07l0.03,1.31c-0.25,0.1-0.72,0.18-1.25,0.18c-0.65,0-1.17-0.21-1.49-0.56
			c-0.38-0.39-0.55-1.03-0.55-1.93V4.91h-0.97V3.61z M120.48,22.42c-0.29-0.05-0.6-0.08-0.93-0.08c-1.04,0-1.84,0.39-2.41,1.17
			c-0.49,0.7-0.74,1.56-0.74,2.63v6.98h-2.96V24c0-1.52-0.03-2.92-0.08-4.18h2.57l0.11,2.55h0.08c0.31-0.87,0.8-1.58,1.48-2.1
			c0.66-0.48,1.37-0.71,2.14-0.71c0.27,0,0.52,0.01,0.73,0.05V22.42z M120.92,6.36v4.11h-1.73V0.48h1.73v4.07h0.03
			c0.21-0.32,0.51-0.59,0.86-0.77c0.35-0.2,0.76-0.31,1.2-0.31c1.17,0,2.39,0.77,2.39,2.97v4.04h-1.73V6.61
			c0-0.98-0.37-1.75-1.32-1.75c-0.68,0-1.15,0.45-1.35,0.97C120.94,5.99,120.92,6.17,120.92,6.36z M133.13,27.19h-8.87
			c0.04,1.31,0.46,2.31,1.29,3c0.75,0.62,1.71,0.93,2.9,0.93c1.32,0,2.51-0.21,3.59-0.63l0.47,2.06c-1.25,0.55-2.75,0.82-4.46,0.82
			c-2.06,0-3.68-0.6-4.85-1.82c-1.18-1.21-1.77-2.84-1.77-4.88c0-2.01,0.55-3.68,1.64-5.01c1.16-1.42,2.71-2.13,4.66-2.13
			c1.92,0,3.37,0.71,4.35,2.13c0.78,1.13,1.18,2.53,1.18,4.19C133.23,26.37,133.19,26.82,133.13,27.19z M72.02,4.81
			c-0.7,0-1.35,0.51-1.53,1.27c-0.03,0.13-0.06,0.28-0.06,0.45v1.11c0,0.14,0.01,0.28,0.04,0.41c0.18,0.7,0.79,1.21,1.53,1.21
			c1.08,0,1.75-0.86,1.75-2.25C73.75,5.79,73.18,4.81,72.02,4.81z M84.48,4.64c-1.07,0-1.52,0.97-1.59,1.67h3.01
			C85.92,5.68,85.63,4.64,84.48,4.64z M96.11,4.71c-1.22,0-1.72,1.2-1.72,2.34c0,1.32,0.66,2.32,1.7,2.32
			c0.98,0,1.67-0.96,1.67-2.35C97.77,5.95,97.29,4.71,96.11,4.71z M62.81,8.4c0,0.68,0.44,0.99,0.98,0.99c0.7,0,1.2-0.45,1.37-0.94
			c0.04-0.13,0.04-0.25,0.04-0.38V7.12C63.97,7.1,62.81,7.36,62.81,8.4z M130.12,4.64c-1.07,0-1.52,0.97-1.59,1.67h3.01
			C131.55,5.68,131.27,4.64,130.12,4.64z"/>
	</g>
</g>
</svg>
