<svg xmlns="http://www.w3.org/2000/svg" width="319.97" height="10.969" viewBox="0 0 319.97 10.969">
    
<defs>
    <style>
      .cls-1 {
        fill: #8f7b54;
        fill-rule: evenodd;
      }
    </style>
  </defs>
  <path id="Ellipse_1_copy_3" data-name="Ellipse 1 copy 3" class="cls-1" d="M2000.91,491.031a5.485,5.485,0,1,1-5.44,5.485A5.457,5.457,0,0,1,2000.91,491.031Zm38.2,0a5.485,5.485,0,1,1-5.42,5.485A5.455,5.455,0,0,1,2039.11,491.031Zm35.51,0a5.485,5.485,0,1,1-5.43,5.485A5.459,5.459,0,0,1,2074.62,491.031Zm161.66,0a5.485,5.485,0,1,1-5.44,5.485A5.466,5.466,0,0,1,2236.28,491.031Zm38.2,0a5.485,5.485,0,1,1-5.42,5.485A5.457,5.457,0,0,1,2274.48,491.031Zm35.52,0a5.485,5.485,0,1,1-5.44,5.485A5.466,5.466,0,0,1,2310,491.031Z" transform="translate(-1995.47 -491.031)"/>
</svg>
