<?xml version="1.0" encoding="utf-8"?>
<!-- Generator: Adobe Illustrator 23.0.3, SVG Export Plug-In . SVG Version: 6.00 Build 0)  -->
<svg version="1.1" id="Layer_1" xmlns="http://www.w3.org/2000/svg" xmlns:xlink="http://www.w3.org/1999/xlink" x="0px" y="0px"
	 viewBox="0 0 152.23 36.49" style="enable-background:new 0 0 152.23 36.49;" xml:space="preserve">
<style type="text/css">
	.st0{fill:#59585B;}
	.st1{fill:#58595B;}
</style>
<g>
	<path class="st0" d="M44.13,4.73h-1.14c0-0.16-0.11-0.6-0.32-1.33h-1.64c-0.22,0.72-0.33,1.16-0.33,1.33h-1.07
		c0-0.09,0.28-0.85,0.83-2.27c0.55-1.42,0.83-2.2,0.83-2.35h1.34c0,0.13,0.25,0.91,0.75,2.31C43.88,3.83,44.13,4.6,44.13,4.73z
		 M42.49,2.72c-0.4-1.22-0.61-1.88-0.61-1.98h-0.06c0,0.09-0.21,0.75-0.63,1.98H42.49z"/>
	<path class="st0" d="M48.7,4.73h-0.88c0-0.1-0.33-0.61-0.98-1.54c-0.68-0.98-1.07-1.64-1.16-2h-0.06c0.06,0.52,0.09,0.99,0.09,1.4
		c0,0.58,0.02,1.3,0.05,2.14h-0.87c0.04-0.73,0.05-1.54,0.05-2.42c0-0.86-0.02-1.6-0.05-2.2h1.05c0,0.13,0.29,0.63,0.88,1.5
		c0.62,0.93,0.98,1.56,1.07,1.89h0.05c-0.06-0.53-0.09-1-0.09-1.42c0-0.64-0.02-1.3-0.05-1.97h0.89c-0.03,0.59-0.05,1.32-0.05,2.2
		C48.65,3.2,48.67,4,48.7,4.73z"/>
	<path class="st0" d="M53.84,2.26c0,0.67-0.22,1.26-0.65,1.76c-0.43,0.5-1.03,0.75-1.81,0.75c-0.35,0-0.83-0.01-1.45-0.04
		c0.03-0.71,0.05-1.52,0.05-2.42c0-0.86-0.02-1.6-0.05-2.2h0.62c0.1,0,0.25,0,0.45-0.01c0.2-0.01,0.33-0.01,0.39-0.01
		c0.85,0,1.47,0.21,1.86,0.64C53.65,1.15,53.84,1.66,53.84,2.26z M52.87,2.41c0-0.45-0.13-0.84-0.4-1.15
		c-0.26-0.31-0.67-0.47-1.21-0.47c-0.1,0-0.24,0.01-0.42,0.03c0.02,0.47,0.04,0.97,0.04,1.48c0,0.57,0.01,1.13,0.04,1.68
		c0.15,0.03,0.31,0.05,0.46,0.05c0.51,0,0.89-0.16,1.13-0.47C52.75,3.25,52.87,2.86,52.87,2.41z"/>
	<path class="st0" d="M58.58,4.73h-1.05c-0.27-0.84-0.48-1.35-0.63-1.55c-0.15-0.2-0.38-0.29-0.71-0.29c-0.14,0-0.27,0-0.39,0
		c0,0.61,0.01,1.22,0.03,1.84h-0.99c0.03-0.71,0.05-1.52,0.05-2.42c0-0.86-0.02-1.6-0.05-2.2h0.61c0.07,0,0.22,0,0.45-0.01
		c0.23-0.01,0.43-0.01,0.63-0.01c1.09,0,1.63,0.37,1.63,1.11c0,0.59-0.31,1-0.93,1.23v0.05c0.24,0.07,0.45,0.25,0.63,0.56
		C58.03,3.35,58.28,3.91,58.58,4.73z M57.25,1.46c0-0.47-0.3-0.71-0.91-0.71c-0.22,0-0.42,0.02-0.59,0.05
		c0.03,0.37,0.04,0.84,0.04,1.43c0.13,0,0.24,0.01,0.33,0.01C56.88,2.25,57.25,1.98,57.25,1.46z"/>
	<path class="st0" d="M63.67,2.33c0,0.73-0.22,1.33-0.67,1.81c-0.44,0.48-0.99,0.72-1.65,0.72c-0.62,0-1.15-0.22-1.57-0.66
		c-0.42-0.44-0.63-1-0.63-1.67c0-0.73,0.22-1.33,0.67-1.81C60.26,0.24,60.81,0,61.47,0c0.62,0,1.15,0.22,1.57,0.66
		C63.46,1.09,63.67,1.65,63.67,2.33z M62.69,2.43c0-0.49-0.13-0.9-0.38-1.2c-0.25-0.31-0.57-0.46-0.94-0.46
		c-0.35,0-0.64,0.15-0.88,0.46c-0.24,0.31-0.36,0.7-0.36,1.17c0,0.49,0.13,0.89,0.38,1.2c0.25,0.31,0.57,0.46,0.93,0.46
		c0.35,0,0.64-0.16,0.88-0.47C62.57,3.3,62.69,2.9,62.69,2.43z"/>
	<path class="st0" d="M65.67,4.73h-1c0.03-0.73,0.05-1.54,0.05-2.42c0-0.86-0.02-1.6-0.05-2.2h1c-0.03,0.6-0.05,1.33-0.05,2.2
		C65.63,3.2,65.64,4.01,65.67,4.73z"/>
	<path class="st0" d="M70.82,2.26c0,0.67-0.22,1.26-0.65,1.76c-0.43,0.5-1.03,0.75-1.81,0.75c-0.35,0-0.83-0.01-1.45-0.04
		c0.03-0.71,0.05-1.52,0.05-2.42c0-0.86-0.02-1.6-0.05-2.2h0.62c0.1,0,0.25,0,0.45-0.01c0.2-0.01,0.33-0.01,0.39-0.01
		c0.85,0,1.47,0.21,1.86,0.64C70.62,1.15,70.82,1.66,70.82,2.26z M69.85,2.41c0-0.45-0.13-0.84-0.4-1.15
		c-0.26-0.31-0.67-0.47-1.21-0.47c-0.1,0-0.24,0.01-0.42,0.03c0.02,0.47,0.04,0.97,0.04,1.48c0,0.57,0.01,1.13,0.04,1.68
		c0.15,0.03,0.31,0.05,0.46,0.05c0.51,0,0.89-0.16,1.13-0.47C69.72,3.25,69.85,2.86,69.85,2.41z"/>
	<path class="st0" d="M77.64,4.73H76.5c0-0.16-0.11-0.6-0.32-1.33h-1.64c-0.22,0.72-0.33,1.16-0.33,1.33h-1.07
		c0-0.09,0.28-0.85,0.83-2.27c0.55-1.42,0.83-2.2,0.83-2.35h1.34c0,0.13,0.25,0.91,0.75,2.31C77.39,3.83,77.64,4.6,77.64,4.73z
		 M76,2.72c-0.4-1.22-0.61-1.88-0.61-1.98h-0.06c0,0.09-0.21,0.75-0.63,1.98H76z"/>
	<path class="st0" d="M81.77,1.32c0,0.57-0.21,0.98-0.63,1.25c-0.42,0.27-0.93,0.4-1.54,0.4c-0.11,0-0.19,0-0.24-0.01
		c0,0.44,0.01,1.03,0.04,1.76h-1c0.03-0.68,0.05-1.49,0.05-2.42c0-0.85-0.02-1.59-0.05-2.2h0.62c0.09,0,0.26,0,0.5-0.01
		c0.25-0.01,0.46-0.01,0.65-0.01c0.45,0,0.83,0.1,1.14,0.31C81.62,0.59,81.77,0.9,81.77,1.32z M80.86,1.51
		c0-0.51-0.34-0.76-1.01-0.76c-0.17,0-0.35,0.02-0.53,0.05c0.03,0.45,0.04,0.95,0.04,1.52c0.06,0,0.13,0.01,0.21,0.01
		C80.43,2.33,80.86,2.06,80.86,1.51z"/>
	<path class="st0" d="M86.03,1.32c0,0.57-0.21,0.98-0.63,1.25c-0.42,0.27-0.93,0.4-1.55,0.4c-0.11,0-0.19,0-0.24-0.01
		c0,0.44,0.01,1.03,0.04,1.76h-1c0.03-0.68,0.05-1.49,0.05-2.42c0-0.85-0.02-1.59-0.05-2.2h0.62c0.09,0,0.26,0,0.5-0.01
		c0.25-0.01,0.46-0.01,0.65-0.01c0.45,0,0.83,0.1,1.14,0.31C85.87,0.59,86.03,0.9,86.03,1.32z M85.11,1.51
		c0-0.51-0.34-0.76-1.01-0.76c-0.17,0-0.35,0.02-0.53,0.05c0.03,0.45,0.04,0.95,0.04,1.52c0.06,0,0.13,0.01,0.21,0.01
		C84.68,2.33,85.11,2.06,85.11,1.51z"/>
	<path class="st0" d="M92.99,2.33c0,0.73-0.22,1.33-0.67,1.81c-0.44,0.48-0.99,0.72-1.65,0.72c-0.62,0-1.15-0.22-1.57-0.66
		c-0.42-0.44-0.63-1-0.63-1.67c0-0.73,0.22-1.33,0.67-1.81C89.58,0.24,90.13,0,90.79,0c0.62,0,1.15,0.22,1.57,0.66
		C92.77,1.09,92.99,1.65,92.99,2.33z M92.01,2.43c0-0.49-0.13-0.9-0.38-1.2c-0.25-0.31-0.57-0.46-0.94-0.46
		c-0.35,0-0.64,0.15-0.88,0.46c-0.24,0.31-0.36,0.7-0.36,1.17c0,0.49,0.13,0.89,0.38,1.2c0.25,0.31,0.57,0.46,0.93,0.46
		c0.35,0,0.64-0.16,0.88-0.47C91.89,3.3,92.01,2.9,92.01,2.43z"/>
	<path class="st0" d="M97.79,4.73h-0.88c0-0.1-0.33-0.61-0.98-1.54c-0.68-0.98-1.07-1.64-1.16-2h-0.06c0.06,0.52,0.09,0.99,0.09,1.4
		c0,0.58,0.02,1.3,0.05,2.14h-0.87c0.04-0.73,0.05-1.54,0.05-2.42c0-0.86-0.02-1.6-0.05-2.2h1.05c0,0.13,0.29,0.63,0.88,1.5
		c0.62,0.93,0.98,1.56,1.07,1.89h0.05c-0.06-0.53-0.09-1-0.09-1.42c0-0.64-0.02-1.3-0.05-1.97h0.89c-0.03,0.59-0.05,1.32-0.05,2.2
		C97.74,3.2,97.76,4,97.79,4.73z"/>
</g>
<g>
	<path class="st0" d="M55.94,19.52c0,2.29-0.68,4.12-2.04,5.48c-1.54,1.62-3.55,2.43-6.03,2.43c-2.37,0-4.38-0.82-6.04-2.46
		c-1.66-1.64-2.49-3.68-2.49-6.11s0.83-4.47,2.49-6.11c1.66-1.64,3.67-2.46,6.04-2.46c1.18,0,2.3,0.23,3.37,0.69
		c1.07,0.46,1.93,1.07,2.57,1.83l-1.44,1.44c-1.08-1.3-2.58-1.95-4.49-1.95c-1.73,0-3.22,0.61-4.48,1.82
		c-1.26,1.21-1.89,2.79-1.89,4.73c0,1.94,0.63,3.52,1.89,4.73c1.26,1.21,2.75,1.82,4.48,1.82c1.83,0,3.36-0.61,4.58-1.83
		c0.79-0.8,1.25-1.9,1.38-3.32h-5.96v-1.97h7.96C55.91,18.71,55.94,19.13,55.94,19.52z"/>
	<path class="st0" d="M58.44,17.17c1.08-1.14,2.47-1.71,4.15-1.71c1.68,0,3.06,0.57,4.15,1.71c1.08,1.14,1.63,2.56,1.63,4.28
		c0,1.71-0.54,3.14-1.63,4.28c-1.09,1.14-2.47,1.71-4.15,1.71c-1.68,0-3.06-0.57-4.15-1.71c-1.08-1.14-1.63-2.56-1.63-4.28
		C56.82,19.74,57.36,18.31,58.44,17.17z M60.01,24.39c0.73,0.74,1.58,1.11,2.58,1.11c0.99,0,1.85-0.37,2.58-1.11
		c0.73-0.74,1.09-1.72,1.09-2.95c0-1.22-0.36-2.2-1.09-2.95c-0.73-0.74-1.59-1.11-2.58-1.11c-0.99,0-1.85,0.37-2.58,1.11
		c-0.73,0.74-1.09,1.72-1.09,2.95C58.92,22.67,59.29,23.65,60.01,24.39z"/>
	<path class="st0" d="M70.71,17.17c1.08-1.14,2.47-1.71,4.15-1.71c1.68,0,3.06,0.57,4.15,1.71c1.08,1.14,1.63,2.56,1.63,4.28
		c0,1.71-0.54,3.14-1.63,4.28c-1.09,1.14-2.47,1.71-4.15,1.71c-1.68,0-3.06-0.57-4.15-1.71s-1.63-2.56-1.63-4.28
		C69.08,19.74,69.62,18.31,70.71,17.17z M72.28,24.39c0.73,0.74,1.58,1.11,2.58,1.11c0.99,0,1.85-0.37,2.58-1.11
		c0.73-0.74,1.09-1.72,1.09-2.95c0-1.22-0.36-2.2-1.09-2.95c-0.73-0.74-1.59-1.11-2.58-1.11c-0.99,0-1.85,0.37-2.58,1.11
		c-0.73,0.74-1.09,1.72-1.09,2.95C71.19,22.67,71.55,23.65,72.28,24.39z"/>
	<path class="st0" d="M86.87,32.38c-1.33,0-2.42-0.33-3.26-1c-0.84-0.66-1.44-1.43-1.81-2.28l1.93-0.8
		c0.21,0.61,0.61,1.12,1.18,1.54c0.57,0.41,1.23,0.62,1.96,0.62c1.16,0,2.07-0.35,2.74-1.04c0.66-0.7,1-1.64,1-2.83v-1.08h-0.09
		c-0.37,0.55-0.89,1.01-1.56,1.38c-0.67,0.37-1.43,0.55-2.27,0.55c-1.45,0-2.71-0.57-3.76-1.72c-1.05-1.15-1.58-2.57-1.58-4.26
		s0.53-3.12,1.58-4.26c1.05-1.15,2.31-1.72,3.76-1.72c0.84,0,1.6,0.18,2.27,0.55c0.67,0.37,1.19,0.83,1.56,1.38h0.09v-1.56h2.02
		v10.66c0,1.93-0.56,3.39-1.67,4.39C89.83,31.88,88.47,32.38,86.87,32.38z M87.03,25.51c0.99,0,1.84-0.37,2.53-1.1
		c0.7-0.73,1.04-1.72,1.04-2.96c0-1.24-0.35-2.22-1.04-2.96c-0.7-0.73-1.54-1.1-2.53-1.1c-0.98,0-1.82,0.37-2.52,1.11
		c-0.7,0.74-1.05,1.72-1.05,2.95c0,1.22,0.35,2.2,1.05,2.95C85.21,25.14,86.05,25.51,87.03,25.51z"/>
	<path class="st0" d="M96.73,27.07h-2.11V10.65h2.11V27.07z"/>
	<path class="st0" d="M103.7,27.43c-1.7,0-3.08-0.57-4.14-1.7c-1.06-1.13-1.59-2.56-1.59-4.29c0-1.64,0.52-3.04,1.55-4.22
		c1.03-1.18,2.35-1.76,3.95-1.76c1.67,0,3,0.54,4,1.63c1,1.08,1.5,2.54,1.5,4.36l-0.02,0.39h-8.87c0.06,1.13,0.44,2.03,1.13,2.68
		c0.7,0.66,1.51,0.99,2.44,0.99c1.51,0,2.54-0.64,3.07-1.93l1.88,0.78c-0.37,0.87-0.97,1.6-1.81,2.19
		C105.95,27.14,104.92,27.43,103.7,27.43z M106.72,20.1c-0.05-0.64-0.34-1.25-0.88-1.83c-0.54-0.58-1.35-0.87-2.42-0.87
		c-0.78,0-1.46,0.24-2.03,0.73c-0.57,0.49-0.97,1.15-1.18,1.97H106.72z"/>
	<path class="st0" d="M117.27,27.07h-2.11V10.65h5.59c1.39,0,2.59,0.46,3.61,1.39c1.02,0.93,1.52,2.09,1.52,3.5
		c0,1.41-0.51,2.57-1.52,3.5c-1.02,0.92-2.22,1.39-3.61,1.39h-3.48V27.07z M117.27,18.4h3.53c0.89,0,1.6-0.3,2.13-0.89
		c0.54-0.6,0.8-1.25,0.8-1.97c0-0.72-0.27-1.38-0.8-1.97c-0.54-0.6-1.25-0.89-2.13-0.89h-3.53V18.4z"/>
	<path class="st0" d="M129.37,27.07h-2.11V10.65h2.11V27.07z"/>
	<path class="st0" d="M134.8,27.43c-1.19,0-2.19-0.34-2.99-1.03c-0.8-0.69-1.2-1.6-1.2-2.73c0-1.22,0.47-2.18,1.42-2.88
		c0.95-0.7,2.12-1.04,3.51-1.04c1.24,0,2.25,0.23,3.05,0.69v-0.32c0-0.83-0.28-1.49-0.85-1.98c-0.57-0.5-1.26-0.75-2.09-0.75
		c-0.61,0-1.17,0.15-1.66,0.44c-0.5,0.29-0.84,0.69-1.02,1.19l-1.93-0.83c0.26-0.67,0.77-1.3,1.54-1.87
		c0.76-0.57,1.77-0.86,3.03-0.86c1.44,0,2.63,0.42,3.58,1.26c0.95,0.84,1.42,2.03,1.42,3.55v6.79h-2.02v-1.56h-0.09
		C137.65,26.79,136.42,27.43,134.8,27.43z M135.15,25.51c0.87,0,1.66-0.33,2.37-0.97c0.71-0.65,1.07-1.42,1.07-2.3
		c-0.6-0.49-1.49-0.73-2.68-0.73c-1.02,0-1.8,0.22-2.32,0.66c-0.52,0.44-0.78,0.96-0.78,1.56c0,0.55,0.24,0.99,0.71,1.31
		C133.99,25.35,134.54,25.51,135.15,25.51z"/>
	<path class="st0" d="M145.19,32.02h-2.18l2.61-5.66l-4.63-10.52h2.29l3.35,8.07h0.05l3.25-8.07h2.29L145.19,32.02z"/>
</g>
<g>
	<path class="st1" d="M0.01,18.58c0-5.24,0-10.49,0-15.73c0-0.64,0.12-1.23,0.58-1.72c0.18-0.19,0.3-0.24,0.52-0.02
		c3.53,3.6,7.06,7.19,10.6,10.78c2.29,2.33,4.58,4.65,6.88,6.97c0.22,0.22,0.24,0.34,0.01,0.58c-5.62,5.59-11.24,11.19-16.84,16.8
		c-0.34,0.34-0.58,0.31-0.91,0.05c-0.6-0.46-0.83-1.08-0.83-1.82c0-3.11,0-6.21-0.01-9.32C0,22.97,0,20.78,0.01,18.58
		C0,18.58,0.01,18.58,0.01,18.58z"/>
	<path class="st1" d="M2.02,0.54c0.43,0,0.73,0.12,1.02,0.28c7.18,4.02,14.36,8.05,21.54,12.06c0.33,0.18,0.32,0.29,0.07,0.54
		c-1.61,1.58-3.2,3.17-4.79,4.77c-0.17,0.17-0.28,0.27-0.51,0.04C13.65,12.4,7.93,6.58,2.21,0.76C2.16,0.71,2.12,0.66,2.02,0.54z"/>
	<path class="st1" d="M3.63,36.11c5.21-5.27,10.43-10.53,15.63-15.81c0.32-0.33,0.47-0.28,0.76,0.02c1.32,1.38,2.66,2.73,4.01,4.08
		c0.24,0.24,0.26,0.33-0.06,0.51c-6.69,3.66-13.38,7.34-20.06,11.01C3.79,35.98,3.69,36.07,3.63,36.11z"/>
	<path class="st1" d="M33.4,18.73c-0.02,0.59-0.3,1.01-0.72,1.32c-0.31,0.23-0.66,0.42-1,0.61c-2.02,1.12-4.05,2.23-6.07,3.35
		c-0.27,0.15-0.43,0.15-0.66-0.09c-1.44-1.48-2.89-2.96-4.34-4.42c-0.21-0.21-0.22-0.33,0-0.54c1.7-1.67,3.39-3.36,5.07-5.05
		c0.2-0.2,0.34-0.22,0.59-0.08c2,1.13,4.01,2.25,6.01,3.37C32.9,17.54,33.38,17.99,33.4,18.73z"/>
</g>
</svg>
