<svg 
 xmlns="http://www.w3.org/2000/svg"
 xmlns:xlink="http://www.w3.org/1999/xlink"
 width="57px" height="55px">
<path fill-rule="evenodd"  fill="rgb(143, 123, 84)"
 d="M1.332,44.987 C-0.989,50.063 6.170,56.901 9.073,53.843 C11.975,50.784 20.167,35.611 23.843,32.160 C26.716,29.462 32.052,32.236 34.115,33.216 C34.437,32.859 34.695,32.534 34.695,32.534 C34.695,32.534 29.005,26.299 28.102,25.126 C28.014,25.013 28.123,24.703 28.387,24.241 L35.873,31.171 L36.550,30.487 L29.372,22.781 C29.535,22.559 29.717,22.319 29.906,22.074 L37.572,28.979 L38.248,28.295 L31.079,20.602 C31.261,20.380 31.448,20.157 31.638,19.926 L39.109,26.843 L39.785,26.158 L32.757,18.612 C32.966,18.371 33.182,18.123 33.401,17.875 L41.046,24.889 L41.723,24.204 L34.581,16.540 C34.834,16.258 35.096,15.970 35.357,15.685 L43.064,22.846 L43.742,22.162 L36.525,14.415 C36.737,14.190 36.952,13.965 37.166,13.738 L44.850,21.045 L45.527,20.360 L38.274,12.575 C38.492,12.350 38.710,12.131 38.926,11.910 L46.700,19.178 L47.376,18.495 L40.113,10.703 C40.358,10.460 40.600,10.222 40.840,9.984 L48.566,17.289 L49.244,16.606 L42.018,8.850 C42.245,8.637 42.461,8.435 42.680,8.233 L50.343,15.268 L51.019,14.584 L43.994,7.043 C44.193,6.869 44.385,6.705 44.575,6.543 L52.216,13.603 L52.895,12.919 L45.935,5.450 C46.138,5.295 46.332,5.155 46.519,5.025 L54.113,12.038 L54.792,11.355 L48.078,4.147 C48.436,4.024 48.703,4.022 48.870,4.160 C50.974,5.947 56.157,10.346 56.157,10.346 L56.931,9.566 C56.931,9.566 51.383,2.664 49.321,0.970 C47.258,-0.723 45.905,-0.788 37.905,5.724 C29.906,12.234 19.844,26.818 17.134,29.815 C14.426,32.809 2.945,41.274 1.332,44.987 ZM5.225,47.286 C5.920,46.583 7.046,46.583 7.742,47.286 C8.435,47.989 8.435,49.125 7.740,49.828 C7.046,50.527 5.920,50.527 5.225,49.828 C4.529,49.127 4.531,47.986 5.225,47.286 Z"/>
</svg>
