<svg 
 xmlns="http://www.w3.org/2000/svg"
 xmlns:xlink="http://www.w3.org/1999/xlink"
 width="85px" height="85px">
<path fill-rule="evenodd"  fill="rgb(143, 123, 84)"
 d="M82.695,16.624 L81.634,16.374 L71.608,22.579 L71.605,22.579 L71.602,22.595 L70.883,22.423 L69.041,30.236 L70.009,30.466 L69.580,32.287 L68.610,32.060 L68.244,33.609 L69.214,33.838 L68.782,35.665 L67.815,35.434 L67.516,36.704 L68.486,36.932 L68.057,38.757 L67.085,38.528 L66.588,40.636 L67.556,40.865 L67.129,42.692 L66.156,42.462 L65.659,44.574 L66.627,44.802 L66.198,46.627 L65.231,46.397 L64.933,47.661 L65.900,47.891 L65.470,49.722 L64.502,49.494 L64.003,51.604 L64.973,51.830 L64.541,53.657 L63.574,53.427 L63.276,54.694 L64.243,54.924 L63.812,56.749 L62.844,56.519 L62.458,58.163 L63.427,58.389 L62.998,60.215 L62.028,59.986 L61.732,61.253 L62.696,61.483 L62.265,63.308 L61.300,63.078 L60.836,65.034 L61.806,65.260 L61.375,67.083 L60.408,66.855 L60.109,68.124 L61.076,68.354 L60.643,70.176 L59.677,69.949 L59.180,72.059 L60.148,72.287 L59.719,74.113 L58.749,73.882 L58.455,75.152 L59.420,75.384 L58.991,77.207 L58.021,76.979 L57.633,78.618 L58.601,78.846 L58.169,80.676 L57.202,80.445 L56.901,81.709 L57.872,81.935 L57.442,83.765 L56.472,83.537 L56.318,84.193 L50.483,82.814 L50.637,82.158 L49.672,81.930 L50.102,80.102 L51.068,80.335 L51.367,79.064 L50.395,78.835 L50.829,77.010 L51.796,77.241 L52.184,75.599 L51.213,75.371 L51.646,73.543 L52.617,73.777 L52.917,72.506 L51.946,72.280 L52.376,70.447 L53.349,70.678 L53.841,68.564 L52.871,68.336 L53.305,66.514 L54.273,66.739 L54.572,65.470 L53.601,65.244 L54.033,63.414 L55.003,63.645 L55.464,61.693 L54.494,61.465 L54.923,59.637 L55.893,59.868 L56.188,58.603 L55.219,58.372 L55.650,56.548 L56.620,56.776 L57.008,55.134 L56.038,54.908 L56.469,53.083 L57.438,53.304 L57.739,52.040 L56.769,51.809 L57.199,49.979 L58.166,50.209 L58.665,48.101 L57.696,47.871 L58.127,46.048 L59.097,46.277 L59.395,45.008 L58.426,44.778 L58.857,42.952 L59.827,43.184 L60.323,41.074 L59.357,40.844 L59.786,39.018 L60.755,39.248 L61.250,37.137 L60.281,36.905 L60.711,35.083 L61.679,35.313 L61.980,34.043 L61.007,33.816 L61.439,31.988 L62.407,32.216 L62.771,30.673 L61.802,30.440 L62.234,28.614 L63.202,28.842 L65.041,21.034 L64.512,20.909 L64.515,20.891 L58.326,10.873 L57.407,10.653 L59.318,2.529 L84.609,8.503 L82.695,16.624 ZM78.624,15.666 L73.511,14.456 L72.303,19.577 L78.624,15.666 ZM71.041,15.427 L71.385,13.954 L68.548,13.285 L68.199,14.753 L71.041,15.427 ZM65.222,17.888 L66.425,12.785 L61.328,11.581 L65.222,17.888 ZM59.029,9.918 L81.375,15.190 L81.700,13.819 L59.353,8.539 L59.029,9.918 ZM59.576,7.605 L81.917,12.879 L82.246,11.505 L59.900,6.231 L59.576,7.605 ZM60.132,5.228 L82.478,10.503 L82.800,9.133 L60.456,3.854 L60.132,5.228 ZM53.449,28.580 L44.758,64.225 L42.043,62.382 L41.785,62.317 L41.019,65.460 L26.283,61.857 L27.050,58.713 L23.488,59.027 L32.177,23.381 L35.134,25.554 L35.877,22.511 L50.611,26.108 L49.870,29.155 L50.128,29.220 L53.449,28.580 ZM39.620,28.477 L39.250,29.996 L41.564,30.563 L41.245,31.880 C40.271,32.069 39.452,32.796 39.204,33.821 C38.951,34.841 39.343,35.866 40.120,36.477 L39.757,37.966 L37.399,37.391 L37.029,38.910 L39.385,39.484 L38.892,41.516 C37.806,41.614 36.851,42.370 36.576,43.491 C36.304,44.606 36.807,45.727 37.724,46.303 L37.312,47.999 L34.956,47.426 L34.587,48.946 L36.940,49.521 L36.605,50.898 C35.519,50.991 34.565,51.750 34.290,52.870 C34.016,53.985 34.520,55.101 35.438,55.688 L35.109,57.024 L32.754,56.449 L32.383,57.972 L38.613,59.493 L38.983,57.973 L36.632,57.398 L36.950,56.085 C38.073,56.025 39.072,55.258 39.352,54.105 C39.634,52.961 39.101,51.813 38.130,51.249 L38.460,49.895 L40.813,50.470 L41.183,48.950 L38.830,48.374 L39.239,46.703 C40.358,46.651 41.361,45.877 41.639,44.732 C41.920,43.582 41.386,42.439 40.417,41.867 L40.907,39.859 L43.261,40.434 L43.631,38.911 L41.278,38.337 L41.595,37.041 C42.822,37.107 43.964,36.293 44.266,35.057 C44.569,33.815 43.931,32.574 42.808,32.063 L43.085,30.934 L45.479,31.517 L45.851,29.999 L39.620,28.477 ZM24.312,17.758 C24.312,17.758 19.441,21.520 17.362,22.672 C16.504,23.151 14.652,24.809 12.319,26.801 C11.596,46.399 13.452,61.887 18.305,72.311 C20.035,73.644 11.974,74.334 10.796,71.979 C9.859,70.103 5.465,45.721 6.296,31.623 C4.492,32.930 2.644,34.107 0.900,34.926 C-0.172,34.825 0.454,33.571 0.454,33.571 C0.454,33.571 2.954,31.356 6.663,28.078 C6.962,26.107 7.431,24.491 8.103,23.384 C10.258,20.835 12.689,20.568 12.530,22.279 C12.518,22.492 12.510,22.701 12.499,22.912 C22.769,13.819 36.129,1.997 37.744,0.566 C40.412,-1.795 42.152,3.926 42.152,3.926 C42.152,3.926 26.000,18.633 25.614,18.982 C25.230,19.336 24.312,17.758 24.312,17.758 ZM13.881,70.990 C14.299,71.155 14.776,70.954 14.949,70.535 C15.119,70.110 14.918,69.632 14.493,69.460 C14.070,69.293 13.593,69.494 13.421,69.919 C13.255,70.340 13.457,70.818 13.881,70.990 ZM10.204,24.956 C9.785,24.785 9.306,24.988 9.136,25.411 C8.963,25.830 9.171,26.310 9.588,26.480 C10.005,26.647 10.488,26.445 10.661,26.025 C10.833,25.602 10.624,25.123 10.204,24.956 Z"/>
</svg>
