<svg 
 xmlns="http://www.w3.org/2000/svg"
 xmlns:xlink="http://www.w3.org/1999/xlink"
 width="27px" height="38px">
<path fill-rule="evenodd"  fill="rgb(170, 145, 97)"
 d="M13.504,0.005 C6.058,0.005 -0.000,6.280 -0.000,13.994 C-0.000,16.006 0.398,17.927 1.181,19.704 C4.557,27.357 11.030,35.437 12.935,37.731 C13.077,37.903 13.285,38.002 13.504,38.002 C13.723,38.002 13.931,37.903 14.073,37.731 C15.977,35.438 22.450,27.358 25.827,19.704 C26.611,17.927 27.008,16.006 27.008,13.994 C27.007,6.280 20.950,0.005 13.504,0.005 ZM13.504,21.260 C9.636,21.260 6.489,18.000 6.489,13.993 C6.489,9.987 9.636,6.727 13.504,6.727 C17.371,6.727 20.518,9.987 20.518,13.993 C20.518,18.000 17.371,21.260 13.504,21.260 Z"/>
</svg>
