<?xml version="1.0" encoding="utf-8"?>
<!-- Generator: Adobe Illustrator 22.0.1, SVG Export Plug-In . SVG Version: 6.00 Build 0)  -->
<svg version="1.1" id="Layer_1" xmlns="http://www.w3.org/2000/svg" xmlns:xlink="http://www.w3.org/1999/xlink" x="0px" y="0px"
	 viewBox="0 0 46.5 68.5" style="enable-background:new 0 0 46.5 68.5;" xml:space="preserve">
<style type="text/css">
	.st0{fill:none;stroke:#FFFFFF;stroke-width:3;}
	.st1{fill:#AA9161;}
</style>
<path class="st0" d="M21,1.5h3c10.8,0,19.5,8.7,19.5,19.5v24.6c0,10.8-8.7,19.5-19.5,19.5h-3c-10.8,0-19.5-8.7-19.5-19.5V21
	C1.5,10.2,10.2,1.5,21,1.5z"/>
<path class="st1" d="M23.2,13.3h0.2c1.6,0,2.9,1.3,2.9,2.9v15.2c0,1.6-1.3,2.9-2.9,2.9h-0.2c-1.6,0-2.9-1.3-2.9-2.9V16.2
	C20.3,14.6,21.6,13.3,23.2,13.3z"/>
</svg>
