<svg 
 xmlns="http://www.w3.org/2000/svg"
 xmlns:xlink="http://www.w3.org/1999/xlink"
 width="96px" height="31px">
<path fill-rule="evenodd"  fill="rgb(143, 123, 84)"
 d="M95.195,8.439 C95.169,7.984 94.961,7.557 94.615,7.255 L94.615,7.255 C93.888,6.641 92.794,6.724 92.170,7.440 C84.558,16.173 79.175,11.971 73.213,7.304 C68.696,3.762 63.893,-0.004 57.558,-0.004 C55.431,-0.015 53.327,0.428 51.390,1.297 C50.133,1.869 48.976,2.636 47.962,3.568 C46.948,2.639 45.791,1.876 44.534,1.306 C42.597,0.438 40.493,-0.006 38.366,0.006 C32.001,0.006 26.354,3.810 21.149,7.313 C19.430,8.478 17.750,9.603 16.159,10.506 C11.622,13.078 7.555,13.844 3.970,7.760 C3.523,6.927 2.476,6.610 1.633,7.052 C1.138,7.312 0.801,7.792 0.729,8.342 C0.262,11.352 0.332,14.419 0.936,17.406 C1.631,20.910 3.601,24.041 6.475,26.207 C9.289,28.187 12.575,29.411 16.012,29.759 C21.167,30.304 26.378,29.975 31.422,28.789 C35.186,28.022 38.823,26.739 42.226,24.975 C44.361,23.854 46.298,22.399 47.962,20.666 C49.623,22.383 51.553,23.825 53.678,24.936 C57.081,26.700 60.718,27.984 64.482,28.750 C69.526,29.937 74.737,30.265 79.892,29.720 C83.329,29.372 86.615,28.148 89.429,26.169 C92.306,24.006 94.278,20.873 94.969,17.367 C95.565,14.426 95.642,11.406 95.195,8.439 Z"/>
</svg>
