<svg xmlns="http://www.w3.org/2000/svg" xmlns:xlink="http://www.w3.org/1999/xlink" width="33px" height="35px">
<path fill-rule="evenodd"  fill="rgb(170, 145, 97)"
 d="M30.466,16.887 C29.896,13.354 28.323,10.142 25.926,7.600 C23.399,4.927 20.199,3.230 16.669,2.706 L17.026,0.003 C21.112,0.608 24.814,2.567 27.739,5.670 C30.514,8.620 32.333,12.335 33.000,16.428 L30.466,16.887 ZM23.145,10.412 C24.814,12.189 25.913,14.425 26.311,16.894 L23.777,17.353 C23.468,15.445 22.623,13.711 21.332,12.342 C19.966,10.892 18.235,9.982 16.333,9.698 L16.690,6.996 C19.148,7.360 21.380,8.540 23.145,10.412 ZM10.770,19.094 C12.528,21.381 14.513,23.413 16.882,24.993 C17.390,25.328 17.953,25.576 18.482,25.882 C18.750,26.042 18.936,25.991 19.155,25.751 C19.959,24.877 20.776,24.017 21.593,23.158 C22.665,22.029 24.010,22.029 25.089,23.158 C26.400,24.542 27.712,25.926 29.017,27.317 C30.108,28.482 30.102,29.910 29.003,31.089 C28.261,31.883 27.471,32.641 26.771,33.471 C25.748,34.688 24.471,35.081 23.001,34.993 C20.865,34.870 18.901,34.120 17.006,33.144 C12.796,30.973 9.198,27.965 6.183,24.163 C3.951,21.352 2.111,18.285 0.902,14.833 C0.311,13.165 -0.107,11.453 0.023,9.640 C0.105,8.525 0.497,7.571 1.273,6.792 C2.111,5.947 2.901,5.066 3.725,4.206 C4.796,3.085 6.142,3.085 7.220,4.199 C7.886,4.891 8.538,5.597 9.198,6.296 C9.836,6.981 10.475,7.651 11.114,8.336 C12.240,9.538 12.240,10.936 11.121,12.131 C10.317,12.990 9.520,13.849 8.703,14.687 C8.491,14.913 8.470,15.095 8.580,15.372 C9.122,16.741 9.898,17.957 10.770,19.094 Z"/>
</svg>
