<svg xmlns="http://www.w3.org/2000/svg" xmlns:xlink="http://www.w3.org/1999/xlink" width="36px" height="36px">
<path fill-rule="evenodd"  fill="rgb(112, 112, 112)"
 d="M19.200,0.041 L19.200,-0.000 L18.000,-0.000 L16.800,-0.000 L16.800,0.041 C7.814,0.632 0.632,7.814 0.041,16.800 L-0.000,16.800 L-0.000,18.000 L-0.000,19.200 L0.041,19.200 C0.632,28.186 7.814,35.367 16.800,35.958 L16.800,36.000 L18.000,36.000 L19.200,36.000 L19.200,35.958 C28.186,35.367 35.367,28.186 35.958,19.200 L36.000,19.200 L36.000,18.000 L36.000,16.800 L35.958,16.800 C35.367,7.814 28.186,0.632 19.200,0.041 ZM11.268,3.923 C10.108,5.465 9.146,7.397 8.446,9.600 L4.850,9.600 C6.415,7.159 8.638,5.184 11.268,3.923 ZM3.595,12.000 L7.814,12.000 C7.493,13.516 7.289,15.128 7.224,16.800 L2.445,16.800 C2.572,15.110 2.971,13.495 3.595,12.000 ZM2.445,19.200 L7.224,19.200 C7.289,20.874 7.493,22.484 7.814,24.000 L3.595,24.000 C2.971,22.505 2.572,20.890 2.445,19.200 ZM4.850,26.400 L8.443,26.400 C9.144,28.603 10.106,30.534 11.268,32.076 C8.638,30.815 6.415,28.842 4.850,26.400 ZM16.800,33.445 C14.333,32.787 12.209,30.136 10.919,26.400 L16.800,26.400 L16.800,33.445 ZM16.800,24.000 L10.246,24.000 C9.907,22.505 9.694,20.890 9.623,19.200 L16.800,19.200 L16.800,24.000 ZM16.800,16.800 L9.623,16.800 C9.694,15.110 9.907,13.495 10.246,12.000 L16.800,12.000 L16.800,16.800 ZM16.800,9.600 L10.919,9.600 C12.209,5.863 14.333,3.213 16.800,2.556 L16.800,9.600 ZM31.148,9.600 L27.558,9.600 C26.855,7.397 25.894,5.465 24.731,3.923 C27.361,5.184 29.585,7.159 31.148,9.600 ZM19.200,2.556 C21.665,3.213 23.791,5.863 25.080,9.600 L19.200,9.600 L19.200,2.556 ZM19.200,12.000 L25.753,12.000 C26.093,13.495 26.304,15.110 26.376,16.800 L19.200,16.800 L19.200,12.000 ZM19.200,19.200 L26.376,19.200 C26.306,20.890 26.093,22.505 25.753,24.000 L19.200,24.000 L19.200,19.200 ZM19.200,33.445 L19.200,26.400 L25.080,26.400 C23.791,30.136 21.665,32.787 19.200,33.445 ZM24.731,32.076 C25.891,30.534 26.855,28.603 27.558,26.400 L31.148,26.400 C29.585,28.842 27.361,30.815 24.731,32.076 ZM32.405,24.000 L28.186,24.000 C28.507,22.484 28.711,20.874 28.776,19.200 L33.553,19.200 C33.426,20.890 33.028,22.505 32.405,24.000 ZM28.776,16.800 C28.711,15.128 28.507,13.516 28.186,12.000 L32.405,12.000 C33.028,13.495 33.426,15.110 33.553,16.800 L28.776,16.800 Z"/>
</svg>
