<svg 
 xmlns="http://www.w3.org/2000/svg"
 xmlns:xlink="http://www.w3.org/1999/xlink"
 width="30px" height="29px">
<path fill-rule="evenodd"  fill="rgb(170, 145, 97)"
 d="M12.093,20.824 L20.569,14.430 L12.093,8.037 L12.093,20.824 ZM14.918,0.222 C7.148,0.222 0.791,6.616 0.791,14.430 C0.791,22.245 7.148,28.639 14.918,28.639 C22.688,28.639 29.046,22.245 29.046,14.430 C29.046,6.616 22.688,0.222 14.918,0.222 ZM14.918,25.797 C8.702,25.797 3.616,20.682 3.616,14.430 C3.616,8.179 8.702,3.064 14.918,3.064 C21.134,3.064 26.220,8.179 26.220,14.430 C26.220,20.682 21.134,25.797 14.918,25.797 Z"/>
</svg>
