<svg 
 xmlns="http://www.w3.org/2000/svg"
 xmlns:xlink="http://www.w3.org/1999/xlink"
 width="69px" height="65px">
<path fill-rule="evenodd"  fill="rgb(143, 123, 84)"
 d="M29.516,46.502 C29.654,46.790 29.778,47.086 29.869,47.392 C30.890,50.772 29.077,54.671 25.554,56.664 C24.600,57.201 23.585,57.572 22.552,57.763 C19.846,58.742 19.131,64.503 18.797,64.879 C18.449,65.280 16.902,64.264 16.965,63.409 C17.026,62.567 18.616,59.118 16.732,56.782 C15.776,56.195 14.984,55.402 14.424,54.429 C14.175,53.999 13.975,53.538 13.831,53.061 C12.810,49.684 14.625,45.782 18.146,43.791 C20.101,42.687 22.319,42.288 24.393,42.683 C25.206,42.835 25.958,43.100 26.636,43.468 L33.567,29.097 L32.089,25.268 L59.693,1.489 L62.251,0.000 L38.160,28.234 L29.516,46.502 ZM27.686,48.045 C27.590,47.730 27.459,47.427 27.298,47.144 C26.629,45.979 25.444,45.184 23.970,44.906 C22.428,44.616 20.763,44.916 19.279,45.755 C16.669,47.232 15.298,50.034 16.018,52.413 C16.112,52.726 16.241,53.030 16.406,53.312 C17.076,54.478 18.257,55.272 19.734,55.550 C21.275,55.844 22.939,55.539 24.423,54.702 C27.032,53.223 28.404,50.420 27.686,48.045 ZM36.982,25.253 C36.526,24.780 35.771,24.766 35.295,25.220 C34.820,25.677 34.804,26.422 35.261,26.895 C35.718,27.364 36.476,27.378 36.949,26.926 C37.422,26.475 37.438,25.724 36.982,25.253 ZM16.685,33.232 C16.483,34.988 15.702,36.675 14.470,38.073 C14.927,38.694 14.971,39.556 14.511,40.231 C13.920,41.092 12.737,41.323 11.868,40.735 C11.712,40.634 11.587,40.508 11.475,40.373 C8.840,41.666 5.800,41.644 3.545,40.132 C3.545,40.130 3.545,40.132 3.545,40.130 C3.131,39.850 2.749,39.527 2.405,39.159 C1.023,37.687 0.401,35.689 0.651,33.540 C0.894,31.463 1.936,29.480 3.584,27.958 C6.554,25.220 10.847,24.667 13.790,26.644 C14.058,26.823 14.307,27.026 14.544,27.242 L30.444,24.807 L32.002,28.841 L16.391,30.093 C16.708,31.066 16.814,32.127 16.685,33.232 ZM13.264,29.151 C13.041,28.912 12.789,28.696 12.518,28.516 C10.443,27.121 7.336,27.586 5.138,29.616 C3.887,30.768 3.098,32.253 2.916,33.799 C2.745,35.282 3.155,36.638 4.076,37.619 C4.299,37.859 4.553,38.073 4.824,38.254 C6.897,39.649 10.002,39.184 12.202,37.158 C13.454,36.000 14.244,34.517 14.422,32.970 C14.593,31.490 14.181,30.136 13.264,29.151 ZM68.177,9.052 L67.113,10.893 L40.036,28.190 L39.848,28.209 L48.630,17.919 L68.177,9.052 Z"/>
</svg>
