<svg 
 xmlns="http://www.w3.org/2000/svg"
 xmlns:xlink="http://www.w3.org/1999/xlink"
 width="103px" height="105px">
<path fill-rule="evenodd"  fill="rgb(143, 123, 84)"
 d="M94.059,16.788 C80.255,35.883 55.138,54.687 20.618,72.991 C22.274,69.343 23.583,66.548 24.464,65.336 C27.513,61.117 33.717,49.173 33.717,49.173 C33.717,49.173 36.987,51.450 37.430,50.401 C37.866,49.344 56.360,5.252 56.360,5.252 C56.360,5.252 47.640,-4.497 44.526,2.650 C42.469,7.371 24.104,49.484 11.882,77.511 C9.524,78.696 7.137,79.892 4.702,81.078 C1.966,82.280 3.379,85.283 7.661,87.181 C3.631,96.431 0.953,102.576 0.953,102.576 C0.953,102.576 0.869,105.651 3.085,104.860 C6.840,100.376 10.333,94.348 13.402,88.319 C36.595,86.284 98.251,36.136 101.408,31.510 C104.655,26.757 94.764,12.052 94.059,16.788 ZM16.989,82.992 C16.265,83.673 15.122,83.630 14.450,82.911 C13.771,82.185 13.810,81.045 14.531,80.365 C15.255,79.684 16.394,79.723 17.073,80.449 C17.746,81.172 17.710,82.318 16.989,82.992 Z"/>
</svg>
