<svg xmlns="http://www.w3.org/2000/svg" xmlns:xlink="http://www.w3.org/1999/xlink" width="34px" height="34px">
<path fill-rule="evenodd"  fill="rgb(170, 145, 97)"
 d="M17.007,34.006 C7.636,34.006 0.012,26.380 0.012,17.006 C0.012,7.633 7.636,0.007 17.007,0.007 C26.378,0.007 34.002,7.633 34.002,17.006 C34.002,26.380 26.378,34.006 17.007,34.006 ZM17.007,3.624 C9.630,3.624 3.628,9.627 3.628,17.006 C3.628,24.386 9.630,30.389 17.007,30.389 C24.384,30.389 30.386,24.386 30.386,17.006 C30.386,9.627 24.384,3.624 17.007,3.624 ZM25.864,19.281 L16.828,19.281 C16.055,19.281 15.428,18.654 15.428,17.881 L15.428,7.296 C15.428,6.523 16.055,5.896 16.828,5.896 C17.600,5.896 18.227,6.523 18.227,7.296 L18.227,16.482 L25.864,16.482 C26.637,16.482 27.264,17.108 27.264,17.881 C27.264,18.654 26.637,19.281 25.864,19.281 Z"/>
</svg>
