<?xml version="1.0" encoding="utf-8"?>
<!-- Generator: Adobe Illustrator 23.0.3, SVG Export Plug-In . SVG Version: 6.00 Build 0)  -->
<svg version="1.1" id="Layer_1" xmlns="http://www.w3.org/2000/svg" xmlns:xlink="http://www.w3.org/1999/xlink" x="0px" y="0px"
	 viewBox="0 0 647.94 166.85" style="enable-background:new 0 0 647.94 166.85;" xml:space="preserve">
     <style>
        path {
            fill: #b2b2b2
        }
     </style>
<path d="M257.7,166.85c-0.36-0.61-0.67-1.25-1.09-1.81c-17.33-22.98-34.67-45.96-52.01-68.93c-0.37-0.5-0.79-0.96-1.45-1.75
	c-0.1,0.93-0.22,1.52-0.22,2.1c-0.01,17.67-0.02,35.35,0.01,53.02c0,1.75,0.2,3.51,0.33,5.26c0.14,1.9,1.2,3.24,2.68,4.34
	c2.35,1.74,5.08,2.24,7.9,2.47c0.86,0.07,1.73,0.01,2.78,0.01c0,1.2,0,2.18,0,3.31c-9.94,0-19.82,0-29.84,0c0-0.99,0-1.92,0-3.05
	c1.25-0.21,2.6-0.3,3.86-0.69c1.96-0.61,3.93-1.29,5.77-2.2c1.69-0.82,2.51-2.41,2.64-4.3c0.08-1.2,0.15-2.4,0.15-3.59
	c0-16.71,0.01-33.43-0.03-50.14c-0.01-2.07-0.2-4.16-0.51-6.2c-0.58-3.9-2.02-5.19-5.99-5.52c-1.58-0.13-3.16-0.15-4.89-0.23
	c0-1.06,0-1.98,0-3.19c0.71-0.04,1.47-0.13,2.24-0.13c6.4-0.01,12.8,0.04,19.19-0.04c1.61-0.02,2.61,0.5,3.58,1.79
	c13.9,18.46,27.86,36.87,41.81,55.3c0.76,1.01,1.53,2.01,2.51,3.29c0.18-0.72,0.35-1.07,0.35-1.42
	c-0.02-15.19-0.05-30.39-0.09-45.58c0-0.64-0.09-1.28-0.1-1.92c-0.08-3.7-1.99-6.02-5.48-6.93c-2.38-0.62-4.83-0.92-7.59-1.43
	c-0.04-0.75-0.09-1.73-0.14-2.89c9.81,0,19.43,0,29.18,0c0.05,0.5,0.13,0.88,0.13,1.26c0,0.55-0.07,1.1-0.11,1.8
	c-0.9,0.14-1.75,0.25-2.58,0.42c-1.17,0.25-2.35,0.48-3.49,0.83c-3.74,1.17-5.99,3.56-6.04,7.66c-0.01,0.88-0.09,1.76-0.09,2.64
	c0,22.15,0.01,44.3,0.01,66.45C259.94,166.85,258.82,166.85,257.7,166.85z"/>
<path d="M647.94,62.21c-0.94-0.05-1.88-0.09-3.01-0.15c0-0.97,0-1.87,0-2.97c1.01-0.08,2.01-0.17,3.01-0.25
	C647.94,59.97,647.94,61.09,647.94,62.21z"/>
<path d="M23.68,97.4c0,0.78,0,1.56,0,2.35c0,14.24-0.01,28.48,0.01,42.72c0,2.56,0.12,5.12,0.25,7.67
	c0.33,6.42,3.41,9.95,9.75,11.19c0.78,0.15,1.57,0.26,2.51,0.41c0,0.95,0,1.87,0,2.83c-1.53,0.51-25.61,0.66-28.65,0.13
	c0-0.9,0-1.82,0-2.88c1.19-0.24,2.35-0.44,3.5-0.71c5.15-1.23,8.12-4.55,8.67-9.84c0.25-2.46,0.42-4.94,0.43-7.42
	c0.03-14.72,0.01-29.44-0.04-44.16c-0.01-1.99-0.18-4-0.46-5.97c-0.4-2.74-1.55-3.92-4.32-4.35c-1.81-0.28-3.66-0.25-5.49-0.35
	c-0.7-0.04-1.4-0.08-2.25-0.13c0-1.07,0-1.99,0-3.11c8.12,0,16.24,0,24.54,0c9.41,21.23,18.85,42.53,28.51,64.32
	c9.6-21.8,18.97-43.07,28.36-64.38c8.25,0,16.38,0,24.67,0c0.04,0.64,0.11,1.18,0.11,1.71c0,0.46-0.09,0.91-0.17,1.6
	c-1.2,0-2.31-0.04-3.41,0.01c-1.67,0.07-3.37,0.07-5.02,0.33c-2.81,0.45-4.05,1.74-4.39,4.58c-0.28,2.3-0.46,4.62-0.46,6.94
	c-0.04,16.16-0.03,32.32,0,48.48c0,2.15,0.18,4.32,0.41,6.46c0.34,3.26,1.82,4.84,5.07,5.44c1.17,0.22,2.38,0.26,3.57,0.3
	c1.35,0.05,2.7,0.01,4.22,0.01c0,1.15,0,2.14,0,3.27c-12.63,0-25.23,0-38.01,0c0-1.01,0-1.99,0-3.27c1.08,0,2.1,0.04,3.12-0.01
	c1.35-0.06,2.73-0.08,4.05-0.32c3.22-0.6,4.74-2.23,5.03-5.49c0.26-2.86,0.43-5.75,0.44-8.62c0.04-16.08,0.02-32.16,0.02-48.24
	c0-0.53-0.05-1.06-0.29-1.66c-3.68,7.33-6.85,14.85-10.18,22.3c-3.36,7.52-6.66,15.06-9.99,22.59c-3.32,7.53-6.64,15.06-10.02,22.71
	c-1.11,0-2.19,0-3.4,0c-10.03-22.54-20.07-45.09-30.1-67.63C24.07,97.28,23.87,97.34,23.68,97.4z"/>
<path d="M621.66,136.99c-0.35,0.05-0.73,0.15-1.11,0.15c-0.63,0-1.26-0.05-2.03-0.09c-0.07-0.69-0.15-1.31-0.19-1.93
	c-0.08-1.2-0.07-2.4-0.2-3.59c-0.5-4.53-2.19-6.25-6.73-6.49c-3.67-0.19-7.35-0.15-11.03-0.19c-0.38,0-0.77,0.12-1.4,0.22
	c0,0.82,0,1.6,0,2.38c0.01,6.48-0.06,12.96,0.08,19.44c0.07,3.35,0.53,6.69,0.85,10.02c0.22,2.3,1.64,3.55,3.8,4.05
	c0.86,0.2,1.72,0.45,2.59,0.47c5.35,0.14,10.71,0.51,16.04-0.36c3.6-0.59,6.61-2.25,9.1-4.93c3.41-3.67,5.42-8.07,6.86-12.78
	c0.33-1.06,0.62-2.14,0.96-3.35c1.05,0,2.05,0,3.37,0c-0.33,8.24-1.15,16.46-1.59,24.83c-22.03,0-43.83,0-65.81,0
	c0-1.01,0-1.99,0-3.14c0.84-0.04,1.62-0.09,2.39-0.12c0.8-0.03,1.6-0.01,2.4-0.08c4.49-0.42,6.25-2.15,6.59-6.66
	c0.21-2.79,0.34-5.59,0.34-8.39c0.02-15.04,0.01-30.08-0.04-45.12c-0.01-2.24-0.18-4.48-0.38-6.7c-0.32-3.54-1.69-4.94-5.23-5.42
	c-1.41-0.19-2.84-0.21-4.37-0.32c0-1.07,0-2,0-2.92c1.74-0.46,53.84-0.57,56.76-0.08c0.62,6.51,1.24,13.08,1.89,19.85
	c-1.21,0-2.2,0-3.33,0c-0.19-0.63-0.39-1.3-0.61-1.97c-0.7-2.12-1.29-4.3-2.16-6.35c-2-4.72-5.46-7.68-10.74-7.93
	c-6.46-0.31-12.92-0.44-19.29-0.64c-0.57,2.06-0.68,29.3-0.18,32.41c1.11,0,2.29,0.03,3.46-0.01c3.35-0.12,6.72-0.07,10.05-0.45
	c3.7-0.43,5.09-2.14,5.4-5.87c0.14-1.66,0.18-3.33,0.27-5.2c1.09,0,2.08,0,3.07,0C622.02,111.36,622.16,133.98,621.66,136.99z"/>
<path d="M116.66,164.87c0-1.14,0-2.01,0-3.07c0.64-0.07,1.25-0.17,1.86-0.21c1.28-0.08,2.57-0.01,3.83-0.2
	c3.74-0.56,5.48-2.42,5.76-6.18c0.19-2.55,0.33-5.11,0.34-7.67c0.03-14.95,0.03-29.91,0-44.86c-0.01-2.56-0.16-5.12-0.35-7.66
	c-0.31-4.02-1.8-5.48-5.85-5.87c-1.25-0.12-2.51-0.15-3.9-0.23c0-1.08,0-2,0-2.91c1.74-0.49,52.6-0.68,56.84-0.18
	c0.63,6.55,1.26,13.17,1.91,19.95c-1.28,0-2.28,0-3.37,0c-0.31-1.11-0.57-2.19-0.93-3.25c-0.64-1.89-1.2-3.82-2.04-5.62
	c-2.03-4.39-5.37-7.19-10.35-7.39c-6.38-0.26-12.78-0.29-19.16-0.41c-0.14,0-0.28,0.12-0.56,0.26c0,10.45,0,20.98,0,31.5
	c0.12,0.1,0.24,0.29,0.36,0.29c4.39-0.08,8.79,0.04,13.15-0.35c3.76-0.34,5.08-2.01,5.51-5.77c0.1-0.87,0.11-1.76,0.14-2.63
	c0.02-0.86,0-1.72,0-2.72c1.24,0,2.17,0,3.1,0c0.53,1.68,0.67,24.13,0.15,27.33c-0.49,0.05-1.03,0.13-1.56,0.14
	c-0.46,0-0.92-0.09-1.69-0.17c0-0.93,0.06-1.79-0.01-2.64c-0.14-1.59-0.24-3.2-0.55-4.75c-0.52-2.54-2.16-4.06-4.74-4.42
	c-1.5-0.2-3.03-0.3-4.54-0.33c-3.03-0.05-6.05-0.01-9.23-0.01c-0.09,0.71-0.22,1.24-0.22,1.76c0,7.44-0.05,14.88,0.08,22.31
	c0.05,2.78,0.53,5.56,0.86,8.33c0.24,2,1.49,3.12,3.36,3.61c1,0.26,2.03,0.61,3.05,0.6c5.11-0.03,10.22-0.01,15.32-0.32
	c4.28-0.26,7.66-2.5,10.42-5.74c3.13-3.68,4.97-7.97,6.31-12.53c0.27-0.91,0.52-1.82,0.82-2.85c1.08,0,2.08,0,3.44,0
	c-0.57,8.29-1.13,16.53-1.7,24.88C160.49,164.87,138.69,164.87,116.66,164.87z"/>
<path d="M388.55,127.99c-0.07,0.86-0.16,1.4-0.15,1.95c0.08,7.91,0.17,15.83,0.27,23.74c0.01,0.72,0.04,1.44,0.14,2.15
	c0.42,3.26,1.85,4.84,5.1,5.43c1.33,0.24,2.7,0.25,4.05,0.31c0.94,0.05,1.88,0.01,2.96,0.01c0,1.18,0,2.1,0,3.02
	c-1.72,0.48-32.57,0.65-36.5,0.19c0-0.96,0-1.94,0-3.21c1,0,1.94,0.05,2.87-0.01c1.35-0.09,2.72-0.14,4.04-0.42
	c2.74-0.57,4.24-2.06,4.47-4.89c0.32-3.98,0.48-7.98,0.49-11.97c0.04-15.11,0-30.22-0.06-45.34c-0.01-1.75-0.19-3.51-0.43-5.25
	c-0.38-2.63-1.5-3.82-4.1-4.28c-1.49-0.26-3.01-0.3-4.53-0.39c-0.86-0.05-1.73-0.01-2.75-0.01c0-1.2,0-2.18,0-3.36
	c1.41-0.09,2.75-0.23,4.09-0.26c8.79-0.21,17.58-0.46,26.37-0.57c4.96-0.06,9.91,0.32,14.77,1.39c1.71,0.37,3.42,0.88,5.03,1.55
	c8.74,3.65,13.36,11.46,12.34,20.87c-0.81,7.5-4.15,13.47-11.22,16.65c-2.64,1.19-5.65,1.84-8.55,2.09
	c-5.08,0.45-10.21,0.42-15.32,0.58C390.88,128.02,389.84,127.99,388.55,127.99z M388.53,124.27c4.32-0.04,8.5,0.09,12.7-0.47
	c8.01-1.08,11.41-7.17,12.41-12.47c0.74-3.9,0.51-7.8-0.47-11.64c-1.04-4.06-3.28-7.27-7.18-9.08c-5.56-2.57-11.43-2.33-17.47-1.94
	C388.53,100.57,388.53,112.27,388.53,124.27z"/>
<path d="M563.58,134.83c1.13,0,1.99,0,3.02,0c0,9.39,0,18.69,0,28.1c-0.98,0-1.84,0-2.87,0c-1.06-2.53-1.61-5.41-3.7-7.72
	c-0.71,0.66-1.35,1.23-1.97,1.82c-6.31,5.99-13.84,9.04-22.5,9.38c-5.07,0.2-10.09-0.14-14.93-1.73
	c-13.71-4.49-22.23-13.87-25.17-27.95c-2.42-11.57-0.82-22.77,4.65-33.3c6.22-11.98,16.48-17.88,29.64-19.12
	c8.91-0.84,17.18,1.13,24.57,6.28c1.96,1.36,3.75,2.96,5.71,4.53c1.71-2.84,2.18-6.08,2.83-9.37c1,0,1.92,0,3.15,0
	c0.24,10.12,0.48,20.14,0.71,30.29c-1.18,0-2.1,0-3.11,0c-0.37-1.66-0.66-3.23-1.08-4.75c-0.57-2.08-1.18-4.15-1.89-6.18
	c-4.5-12.86-16.74-17.62-26.66-17.23c-8.32,0.33-14.6,4.19-19.08,11.1c-2.92,4.5-4.55,9.5-5.37,14.76c-1.42,9-1.55,17.99,0.67,26.9
	c0.97,3.91,2.56,7.56,4.93,10.85c6.69,9.29,17.11,12.92,28.14,9.93c7.56-2.05,13.06-6.45,16.39-13.61
	C561.56,143.72,562.93,139.49,563.58,134.83z"/>
<path d="M311.5,157c-1.57,2.17-1.89,4.58-2.66,6.99c-1.05,0-2.13,0-3.37,0c0-8.58,0-17.09,0-25.72c1.13,0,2.13,0,3.38,0
	c0.22,0.87,0.46,1.77,0.68,2.68c1.03,4.21,2.46,8.26,4.72,12c5.62,9.31,15.41,11.46,23.91,9.09c7.94-2.22,12.56-10.55,10.29-18.25
	c-0.9-3.04-2.69-5.53-5.34-7.15c-3.67-2.25-7.48-4.28-11.33-6.22c-3.78-1.91-7.69-3.54-11.5-5.41c-1.79-0.88-3.55-1.87-5.14-3.07
	c-7.39-5.57-10.39-13.02-8.81-22.12c1.43-8.21,8.84-14.78,17.4-15.45c2.99-0.23,6.07,0.03,9.06,0.42c3.65,0.48,6.82,2.19,9.58,4.64
	c0.95,0.84,1.89,1.7,2.91,2.62c1.82-1.74,2.29-4.01,2.86-6.32c0.99,0,1.92,0,2.99,0c0,7,0,13.93,0,21.01c-0.96,0-1.88,0-2.99,0
	c-0.22-0.65-0.48-1.38-0.71-2.12c-1.4-4.5-3.54-8.57-7.03-11.82c-4.79-4.46-10.39-5.89-16.84-4.83c-7.8,1.29-12.7,11.98-6.2,19.23
	c1.26,1.41,2.79,2.69,4.41,3.65c3.44,2.02,6.99,3.86,10.56,5.66c4.99,2.52,10.12,4.79,15.04,7.44c5.1,2.75,8.45,7.13,9.86,12.73
	c2.79,11.04-0.81,21.86-11.33,27.07c-8.6,4.26-22.9,4.37-32.41-4.88C312.89,158.28,312.26,157.71,311.5,157z"/>
<path d="M495.61,161.79c0,1.01,0,1.94,0,3.03c-10.48,0-20.9,0-31.45,0c0-1.02,0-1.95,0-3.06c0.62-0.06,1.23-0.12,1.84-0.18
	c1.59-0.15,3.2-0.19,4.76-0.49c2.48-0.47,3.35-1.97,2.69-4.37c-0.28-1-0.63-1.98-1.03-2.94c-2.24-5.47-4.5-10.94-6.77-16.4
	c-0.18-0.43-0.44-0.83-0.69-1.28c-9.71,0-19.38,0-29.22,0c-2.29,5.52-4.89,10.93-6.18,16.81c-1.03,4.72,1.19,7.76,5.97,8.57
	c0.63,0.11,1.26,0.13,2.09,0.21c0,1,0,1.99,0,3.15c-7.86,0-15.73,0-23.76,0c0-0.97,0-1.9,0-3.03c0.74-0.21,1.55-0.46,2.38-0.68
	c3.02-0.78,5.4-2.45,6.85-5.22c1.37-2.62,2.69-5.27,3.83-7.99c8.59-20.49,17.13-40.99,25.7-61.49c0.87-2.08,0.88-2.08,3.62-1.77
	c0.34,0.77,0.73,1.63,1.1,2.49c9.42,22.3,18.84,44.61,28.26,66.91c0.25,0.59,0.5,1.18,0.77,1.75c1.39,2.93,3.56,4.88,6.83,5.45
	C493.98,161.4,494.74,161.6,495.61,161.79z M450.73,101.16c-0.18-0.02-0.36-0.04-0.54-0.07c-4.31,10.43-8.62,20.86-12.96,31.37
	c3.62,0.46,24.5,0.31,26.41-0.19C459.33,121.89,455.03,111.53,450.73,101.16z"/>
<path d="M333.04,29.94c0.44-0.71,0.67-0.95,0.75-1.24c1.5-5.38,2.99-10.77,4.45-16.16c0.18-0.68,0.19-1.43,0.21-2.15
	c0.07-2.5-0.27-2.94-2.74-3.67c-0.23-0.07-0.46-0.14-0.66-0.26c-0.13-0.07-0.21-0.23-0.52-0.57c0.43-0.28,0.8-0.59,1.23-0.76
	c0.27-0.11,0.63-0.05,0.95-0.02c5.14,0.59,10.2,0.03,15.24-0.94c0.14-0.03,0.31,0.06,0.75,0.14c0.4,2.18,0.13,4.48,0.17,6.76
	c0.05,2.29,0.01,4.58,0.01,7.27c0.83-0.63,1.32-0.99,1.79-1.36c2.3-1.82,4.93-2.23,7.71-1.67c3.14,0.64,5.1,3.17,5.24,6.86
	c0.12,3.04,0.04,6.08,0.05,9.12c0,0.8,0.01,1.6,0.04,2.4c0.05,1.33,0.55,2.31,1.99,2.61c0.61,0.13,1.32,0.21,1.23,1.31
	c-0.38,0.09-0.8,0.28-1.23,0.27c-3.36-0.04-6.73-0.12-10.09-0.19c-0.05-0.2-0.09-0.4-0.14-0.6c0.5-0.26,0.97-0.65,1.5-0.75
	c1.44-0.27,2.07-1.17,2.07-2.52c0-3.76,0.06-7.52-0.15-11.27c-0.15-2.71-1.52-4.21-3.52-4.51c-2.45-0.36-5.09,1.1-5.99,3.46
	c-0.33,0.87-0.45,1.87-0.47,2.81c-0.06,2.72,0,5.44-0.03,8.16c-0.02,1.97,0.24,3.71,2.62,4.15c0.13,0.02,0.24,0.2,0.35,0.32
	c0.05,0.05,0.05,0.14,0.13,0.4c-1,1.15-2.3,0.27-3.43,0.34c-1.35,0.09-2.72,0.05-4.08,0.03c-1.22-0.02-2.48,0.57-3.69-0.09
	c0.06-1.16,0.83-1.2,1.51-1.33c1.32-0.24,1.86-1.14,2-2.36c0.07-0.63,0.09-1.28,0.09-1.92c0.01-6.48,0.02-12.96-0.01-19.44
	c0-1.11-0.05-2.25-0.26-3.34c-0.47-2.45-3.19-3.34-4.88-1.49c-0.93,1.02-1.56,2.41-2.01,3.75c-1.98,5.91-3.85,11.86-5.76,17.79
	c-0.73,2.28-1.47,4.56-2.22,6.84c-0.17,0.53-0.32,1.09-0.62,1.54c-0.51,0.77-1.46,0.75-1.95-0.05c-0.33-0.54-0.51-1.17-0.72-1.77
	c-2.1-6.04-4.18-12.08-6.28-18.12c-0.25-0.71-0.55-1.39-1.31-2.09c-0.28,0.79-0.58,1.58-0.82,2.38c-1.75,5.82-3.48,11.64-5.22,17.45
	c-0.11,0.38-0.16,0.81-0.37,1.14c-0.35,0.56-0.71,1.36-1.23,1.51c-0.99,0.29-1.3-0.67-1.56-1.43c-2.16-6.36-4.31-12.71-6.45-19.08
	c-0.84-2.5-1.59-5.03-2.46-7.51c-0.64-1.82-1.64-3.28-3.88-3.37c-0.4-0.02-0.78-0.6-1.17-0.92c0.44-0.24,0.86-0.66,1.31-0.69
	c0.95-0.07,1.91,0.1,2.87,0.1c2.63-0.01,5.26-0.06,7.9-0.08c1.09-0.01,2.19,0,3.66,0c-0.39,0.73-0.54,1.12-0.79,1.43
	c-0.12,0.14-0.45,0.12-0.68,0.17c-3.67,0.74-3.92,0.97-2.99,4.54c1.47,5.64,3.12,11.24,4.72,16.85c0.12,0.42,0.39,0.8,0.83,1.7
	c0.4-1.2,0.67-1.91,0.87-2.63c1.87-6.61,3.73-13.23,5.59-19.84c0.04-0.15,0.04-0.33,0.11-0.47c0.42-0.78,0.11-2.19,1.46-2.15
	c1.11,0.03,1.09,1.22,1.35,2.01c2.24,6.83,4.46,13.67,6.69,20.51C332.31,28,332.6,28.73,333.04,29.94z"/>
<path d="M88.2,24.03c0.92-0.99,1.93-1.09,2.98-1.13c14.85-0.64,29.7-1.29,44.55-1.96c1.19-0.05,2.38-0.25,3.55-0.5
	c2.04-0.45,3.33-1.51,3.65-3.82c0.39-2.86,3.09-4.84,6-4.81c3.1,0.04,5.42,1.96,5.91,4.91c0.39,2.36-1.78,6.35-4.05,7.04
	c-0.92,0.28-2.18,0.26-3.02-0.15c-3.89-1.89-7.98-1.19-12.01-1.18c-1.3,0-2.49,0.46-3.41,1.56c0.87,1.38,2.17,1.68,3.54,1.73
	c2.4,0.09,4.8,0.22,7.19,0.11c1.15-0.05,2.3-0.57,3.42-0.95c3.87-1.32,5.23-0.87,7.4,2.56c1.46,2.29,1.31,4.94-0.37,6.9
	c-1.58,1.83-4.5,2.55-6.8,1.59c-2.12-0.88-3.67-2.31-3.89-4.74c-0.16-1.77-1.16-2.79-2.75-3.21c-1.38-0.37-2.81-0.7-4.22-0.77
	c-14.85-0.69-29.7-1.32-44.55-1.97C90.2,25.18,89.07,25.19,88.2,24.03z M144.28,30.33c-0.11,2.55,1.75,4.66,4.27,4.84
	c2.5,0.18,4.85-1.97,4.92-4.5c0.07-2.45-1.97-4.6-4.46-4.7C146.47,25.87,144.38,27.8,144.28,30.33z M148.79,22.21
	c2.42,0.03,4.6-2.08,4.68-4.52c0.08-2.52-2.16-4.76-4.7-4.72c-2.52,0.04-4.5,2.08-4.49,4.62C144.28,20.1,146.32,22.18,148.79,22.21z
	 M128.82,24.07c-0.42-0.33-0.71-0.72-0.96-0.7c-0.26,0.02-0.67,0.44-0.68,0.69c-0.01,0.23,0.42,0.66,0.68,0.68
	C128.11,24.76,128.4,24.38,128.82,24.07z"/>
<path d="M518.06,26.24c-1.22-1.59-2.5-1.93-3.9-1.97c-2.32-0.06-4.64-0.22-6.95-0.1c-1.23,0.06-2.46,0.57-3.66,0.98
	c-3.81,1.28-5,0.9-7.23-2.46c-1.46-2.2-1.39-4.99,0.18-6.92c1.5-1.85,4.47-2.66,6.77-1.75c2.21,0.88,3.84,2.36,4.03,4.89
	c0.12,1.59,0.99,2.56,2.38,2.96c1.52,0.45,3.1,0.84,4.68,0.92c14.86,0.7,29.72,1.34,44.57,1.98c1.12,0.05,2.23,0.08,2.98,1.16
	c-0.8,1.09-1.93,1.12-3.05,1.17c-7.91,0.34-15.82,0.67-23.73,1.01c-7.11,0.31-14.22,0.62-21.33,0.97c-1.11,0.06-2.23,0.26-3.3,0.56
	c-1.81,0.5-3.07,1.42-3.27,3.59c-0.21,2.37-2.32,4.32-4.71,4.85c-2.35,0.52-5.06-0.52-6.34-2.45c-1.34-2.02-1.23-4.56,0.29-6.73
	c2.16-3.06,3.41-3.63,6.9-2.18c3.84,1.6,7.72,0.76,11.59,0.74C515.9,27.47,516.83,26.75,518.06,26.24z M501.24,14.79
	c-2.46,0.03-4.53,2.14-4.54,4.63c-0.01,2.6,2.16,4.7,4.76,4.61c2.5-0.09,4.47-2.19,4.42-4.71
	C505.82,16.85,503.68,14.76,501.24,14.79z M505.87,32.33c-0.04-2.48-2.14-4.55-4.61-4.54c-2.47,0.01-4.54,2.08-4.57,4.58
	c-0.02,2.6,2.14,4.71,4.73,4.63C503.94,36.92,505.91,34.85,505.87,32.33z M521.28,25.83c0.42,0.37,0.68,0.78,0.94,0.77
	c0.28-0.01,0.54-0.39,0.82-0.61c-0.23-0.26-0.42-0.69-0.69-0.74C522.09,25.21,521.76,25.55,521.28,25.83z"/>
<path d="M204.62,25.77c0.59,0.64,1.11,0.93,1.12,1.24c0.08,3.51,0.08,7.02,0.08,10.53c0,0.17-0.28,0.34-0.54,0.62
	c-0.31-0.27-0.64-0.46-0.85-0.75c-1.39-1.82-1.4-1.82-3.52-0.84c-5.57,2.59-11.21,2.26-16.77,0.13c-3.65-1.4-5.91-4.3-7.06-8
	c-1.34-4.3-1.46-8.68-0.18-13c1.9-6.37,6.29-9.97,12.8-11.15c3.84-0.69,7.47-0.2,10.97,1.48c0.65,0.31,1.32,0.57,2.04,0.88
	c0.63-0.46,1.25-0.9,2.12-1.53c0.16,3.39,0.31,6.5,0.45,9.56c-0.82,0.42-1.33,0.18-1.63-0.52c-0.35-0.8-0.62-1.64-1.01-2.43
	c-1.96-3.96-5.3-5.51-9.58-5.55c-4.24-0.04-7.31,1.88-8.94,5.66c-2.71,6.27-2.66,12.66,0.45,18.77c2.68,5.28,9.57,7.15,14.75,4.23
	c2.62-1.48,3.78-4.02,4.57-6.77C204.09,27.61,204.3,26.88,204.62,25.77z"/>
<path d="M402.26,36.96c1.15-0.33,1.79-0.54,2.46-0.69c1.34-0.31,2.05-1.16,2.17-2.51c0.03-0.4,0.03-0.8,0.03-1.2
	c0-6.88,0-13.75,0-20.63c0-0.64-0.01-1.28-0.09-1.91c-0.28-2.18-0.73-2.63-2.92-3.15c-0.59-0.14-1.15-0.37-1.68-0.54
	c0.02-0.36,0-0.53,0.06-0.66c0.05-0.13,0.18-0.32,0.3-0.34c2.83-0.37,5.65-0.73,8.81-1.13c0,6.94,0,13.76,0,20.59
	c0.2,0.08,0.39,0.15,0.59,0.23c2.44-1.8,4.38-4.05,5.89-6.86c-0.87-0.53-1.55-0.95-2.49-1.52c1.9-1.18,3.55-0.29,5.13-0.39
	c1.55-0.1,3.1-0.02,4.86,0.36c-0.35,0.3-0.66,0.8-1.04,0.86c-1.61,0.24-2.75,1.2-3.87,2.25c-1.97,1.83-3.96,3.62-6.2,5.66
	c0.71,0.17,1.06,0.28,1.43,0.33c2.48,0.35,4.26,1.7,5.5,3.82c0.2,0.34,0.39,0.7,0.59,1.04c1.51,2.71,2.73,5.69,6.56,6.28
	c-1.26,1.77-2.7,0.82-3.89,0.93c-1.33,0.12-2.69,0.03-4.23,0.03c-1.09-3.44-2.36-6.91-5.57-9.11c-0.81-0.55-1.8-0.83-2.95-1.35
	c-0.4,2.59-0.35,4.78-0.02,6.97c0.14,0.97,0.73,1.55,1.61,1.91c0.55,0.22,1.07,0.51,1.81,0.87c-1.46,1.52-2.91,0.5-4.21,0.6
	c-1.35,0.1-2.72,0.1-4.07,0.04C405.47,37.67,404.02,38.55,402.26,36.96z"/>
<path d="M234.37,36.14c-1.15,1.01-5.9,1.99-8.26,1.87c-0.24-0.68-0.5-1.42-0.8-2.27c-0.63,0.37-1.23,0.73-1.84,1.08
	c-2.47,1.43-5.13,1.71-7.88,1.15c-2.44-0.5-4-2.01-4.41-4.47c-0.29-1.72-0.37-3.49-0.43-5.24c-0.07-2.08,0.01-4.16-0.04-6.24
	c-0.07-2.65-0.24-2.82-2.81-3.63c-0.35-0.11-0.64-0.4-1.07-0.67c0.99-1.64,2.67-0.93,3.92-1.36c1.31-0.46,2.75-0.57,4.43-0.89
	c0.08,1.13,0.18,1.97,0.19,2.82c0.03,3.84-0.04,7.68,0.07,11.51c0.13,4.81,2.01,6.16,6.63,4.9c0.54-0.15,1.06-0.36,1.58-0.55
	c1.34-0.49,2.01-1.33,1.95-2.89c-0.11-3.11-0.01-6.24-0.06-9.36c-0.04-2.58-0.1-2.59-2.58-3.54c-0.27-0.11-0.51-0.34-0.72-0.57
	c-0.08-0.09-0.04-0.3-0.05-0.51c0.16-0.13,0.32-0.36,0.52-0.4c2.26-0.46,4.52-0.88,7.11-1.38c0.13,0.9,0.34,1.72,0.35,2.53
	c0.04,4,0.01,8,0.02,12c0,0.88,0.01,1.76,0.08,2.64c0.17,2.04,0.53,2.44,2.48,2.97C233.19,35.77,233.63,35.91,234.37,36.14z"/>
<path d="M448.6,16.61c0.31-0.28,0.47-0.55,0.64-0.55c3.51-0.05,7.02-0.07,10.53-0.07c0.27,0,0.55,0.19,0.9,0.32
	c-0.17,1.06-0.96,1.03-1.6,1.25c-1.53,0.53-1.97,1.06-1.4,2.46c1.53,3.77,3.23,7.46,4.88,11.18c0.05,0.11,0.25,0.16,0.52,0.32
	c0.32-0.53,0.71-1.03,0.95-1.59c1.28-3.01,2.59-6.02,3.75-9.07c0.81-2.11,0.51-2.56-1.53-3.41c-0.39-0.16-0.73-0.48-1.08-0.71
	c0.17-0.27,0.24-0.52,0.32-0.52c2.62-0.07,5.24-0.12,7.86-0.15c0.18,0,0.37,0.24,0.52,0.34c-0.02,0.23,0.01,0.49-0.05,0.51
	c-2.23,0.73-2.99,2.66-3.87,4.56c-3.97,8.54-7.93,17.1-12.04,25.58c-0.85,1.75-2.16,3.36-3.54,4.75c-1.31,1.32-3.1,1.64-4.88,0.72
	c-1.44-0.74-1.74-2.73-0.61-3.87c0.76-0.77,1.67-1,2.58-0.29c1.18,0.92,2.05,0.48,2.87-0.5c2.49-2.97,4.21-6.4,5.68-9.95
	c0.23-0.55,0.01-1.42-0.27-2.03c-2.42-5.3-4.9-10.58-7.37-15.86c-0.56-1.19-1.3-2.18-2.68-2.56
	C449.31,17.33,449.01,16.93,448.6,16.61z"/>
<path d="M448,25.36c-4.81,0-9.49,0-14.1,0c-1.33,4.96,1.56,9.3,6.29,9.67c1.26,0.1,2.57,0.01,3.81-0.23
	c1.14-0.22,2.21-0.77,3.7-1.31c-0.12,0.71-0.05,1.27-0.29,1.6c-0.98,1.32-2.29,2.21-3.89,2.64c-2.77,0.74-5.55,0.74-8.28-0.11
	c-2.56-0.8-4.53-2.41-5.62-4.88c-1.61-3.68-1.76-7.45-0.18-11.18c1.96-4.65,6.79-7.18,11.74-6.29
	C445.68,16.07,448.6,20.18,448,25.36z M433.43,23.73c3.25,0,5.95,0,8.65,0c0.88,0,1.26-0.45,1.36-1.31
	c0.24-2.23-1.27-4.76-3.23-5.33c-2.42-0.71-4.93,0.45-5.87,2.86C433.9,21.02,433.78,22.21,433.43,23.73z"/>
<path d="M262.49,16.53c0.73-0.42,1.24-0.71,1.95-1.11c0,2.46,0,4.64,0,7.42c-0.75-0.61-1.17-0.84-1.41-1.19
	c-0.26-0.39-0.31-0.9-0.5-1.34c-1.17-2.73-3.64-3.91-6.45-3.09c-1.47,0.43-2.51,1.54-2.6,2.82c-0.1,1.43,0.79,2.21,1.94,2.73
	c1.16,0.53,2.39,0.92,3.54,1.46c1.51,0.71,3.08,1.38,4.44,2.32c2.26,1.56,3,3.86,2.51,6.54c-0.45,2.5-2.19,3.83-4.44,4.55
	c-2.5,0.81-5.06,0.84-7.56,0.09c-1.33-0.4-2.55-0.72-3.9,0.83c-0.15-2.96-0.27-5.4-0.42-8.38c0.77,0.6,1.2,0.79,1.39,1.11
	c0.35,0.62,0.52,1.34,0.84,1.98c1.4,2.7,4.78,4,7.6,2.94c2.34-0.88,3.03-4.03,1.14-5.7c-0.88-0.78-1.98-1.34-3.06-1.85
	c-1.51-0.73-3.1-1.28-4.63-1.98c-2.25-1.04-3.4-2.8-3.35-5.33c0.05-2.53,1.3-4.27,3.52-5.25C256.22,14.69,259.41,14.63,262.49,16.53
	z"/>
<path d="M385.53,38.12c0.14-2.63-0.52-5.08-0.44-7.53c0.27-0.05,0.55-0.11,0.82-0.16c0.3,0.58,0.63,1.13,0.88,1.73
	c1.39,3.35,3.64,4.69,7.15,4.24c1.49-0.19,2.58-0.9,2.97-2.38c0.4-1.49,0.21-2.93-1.21-3.82c-1.21-0.76-2.51-1.39-3.8-2.01
	c-1.22-0.58-2.52-1.02-3.74-1.61c-2.04-1-3.15-2.67-3.19-4.96c-0.04-2.37,0.99-4.21,3.09-5.29c2.83-1.46,5.78-1.72,8.77-0.38
	c0.36,0.16,0.71,0.36,1.09,0.55c0.6-0.33,1.18-0.64,1.91-1.04c0,2.43,0,4.64,0,7.37c-0.74-0.61-1.17-0.81-1.34-1.14
	c-0.33-0.63-0.45-1.37-0.78-2c-1.29-2.5-4.52-3.46-7.01-2.13c-1.08,0.58-1.69,1.45-1.72,2.68c-0.02,1.19,0.65,1.94,1.67,2.41
	c0.94,0.43,1.93,0.78,2.87,1.21c1.66,0.77,3.4,1.43,4.94,2.4c2.37,1.48,3.46,3.73,3.01,6.55c-0.45,2.79-2.35,4.23-4.92,4.95
	c-2.45,0.69-4.91,0.67-7.33-0.06C387.96,37.31,386.81,37.04,385.53,38.12z"/>
<path d="M284.25,27.4c1.43,1.59,2.79,3.1,4.35,4.83c0.7-0.9,1.23-1.66,1.83-2.36c0.78-0.91,1.49-1.94,2.45-2.6
	c0.7-0.48,1.76-0.61,2.65-0.57c0.37,0.02,0.91,0.84,1,1.36c0.07,0.4-0.37,1.12-0.76,1.28c-0.37,0.15-0.98-0.2-1.44-0.43
	c-0.24-0.12-0.38-0.43-0.61-0.7c-2.07,1.1-2.77,3.16-4.34,4.87c1.06,0.93,1.93,1.85,2.95,2.55c1.55,1.07,2.38,0.83,3.56-0.78
	c0.16-0.22,0.33-0.42,0.65-0.83c0.14,2.96-1.4,4.53-3.91,4.36c-2.08-0.14-3.46-1.5-4.98-2.86c-0.51,0.43-0.93,0.93-1.46,1.21
	c-1.18,0.61-2.38,1.36-3.65,1.59c-2.41,0.43-4.39-0.63-5.27-2.44c-0.98-2.01-0.44-4.78,1.3-6.39c0.64-0.59,1.39-1.06,2.25-1.7
	c-0.49-0.78-1.05-1.53-1.44-2.36c-0.92-1.93-1.05-3.89,0.36-5.64c1.34-1.68,3.23-1.98,5.22-1.57c1.58,0.32,2.79,1.21,3.27,2.83
	c0.47,1.61,0,3.03-1.19,4.15C286.24,25.97,285.31,26.58,284.25,27.4z M281.93,28.93c-2.04,1.99-2.48,5-1.06,6.51
	c1.22,1.3,3.53,1.03,5.59-0.67c0.05-0.04,0.06-0.14,0.18-0.42c-1-1.19-2.06-2.46-3.14-3.72C283,30.06,282.45,29.5,281.93,28.93z
	 M283.45,26.09c2.18-1.31,2.9-2.81,2.36-4.72c-0.44-1.52-1.47-2.26-2.79-2c-1.19,0.24-1.89,1.24-1.79,2.72
	C281.34,23.77,282.24,25.03,283.45,26.09z"/>
<path d="M234.18,17.73c-0.26-0.81-0.12-1.46,0.86-1.55c2.57-0.25,3.77-1.83,4.19-4.2c0.04-0.24,0.05-0.54,0.2-0.68
	c0.36-0.34,0.82-0.85,1.21-0.83c0.34,0.02,0.86,0.67,0.9,1.07c0.11,1.33,0.04,2.68,0.04,4.35c2.13,0,4,0,5.82,0
	c0.24,2.12,0.24,2.16-1.26,2.21c-1.35,0.05-2.71,0.01-4.24,0.01c-0.11,0.72-0.27,1.31-0.28,1.91c-0.02,3.52-0.02,7.04,0,10.55
	c0,0.64,0.06,1.28,0.15,1.91c0.39,2.76,1.59,3.55,4.32,2.85c0.81-0.21,1.6-0.5,2.78-0.4c-0.24,0.5-0.38,1.08-0.74,1.47
	c-1.9,2.13-7.13,2.5-9.35,0.67c-1.35-1.11-1.7-2.66-1.71-4.31c-0.03-3.6-0.01-7.2-0.02-10.79c0-0.56,0.01-1.12,0-1.68
	c-0.06-1.89-0.06-1.89-2-2.21c-0.23-0.04-0.45-0.12-0.67-0.2C234.3,17.87,234.25,17.79,234.18,17.73z"/>
<path d="M371.77,36.93c0.54-0.21,1.07-0.49,1.63-0.62c1.36-0.29,2.17-1.11,2.17-2.47c0-4.46-0.07-8.92-0.17-13.38
	c-0.03-1.37-0.82-2.17-2.19-2.44c-0.5-0.1-0.96-0.39-1.5-0.62c1.06-1.12,2.77-1.49,8.26-1.85c0.07,0.81,0.19,1.63,0.19,2.45
	c0.02,4.54,0.01,9.09,0.01,13.63c0,0.64-0.01,1.28,0.03,1.91c0.09,1.39,0.61,2.45,2.12,2.8c0.43,0.1,0.83,0.4,1.21,0.65
	c0.08,0.05,0.04,0.29,0.07,0.62c-0.4,0.11-0.82,0.32-1.23,0.31c-3.51-0.05-7.02-0.15-10.53-0.23
	C371.82,37.44,371.79,37.19,371.77,36.93z"/>
<path d="M377.55,10.42c-1.66,0-2.81-1.05-2.82-2.57c-0.01-1.46,1.25-2.68,2.77-2.67c1.51,0,2.68,1.23,2.65,2.77
	C380.12,9.45,379.1,10.42,377.55,10.42z"/>
<path d="M517.61,61.94c0-1.05,0-1.9,0-2.86c1.03,0,1.93,0,2.97,0c0,1.01,0,1.91,0,2.86C519.5,61.94,518.55,61.94,517.61,61.94z"/>
<path d="M511.27,61.97c0-0.98,0-1.82,0-2.84c0.95,0,1.85,0,2.95,0c0,0.86,0,1.76,0,2.84C513.34,61.97,512.44,61.97,511.27,61.97z"/>
<path d="M374.13,62.04c-0.96,0-1.8,0-2.85,0c0-0.92,0-1.81,0-2.91c0.84,0,1.74,0,2.85,0C374.13,59.97,374.13,60.87,374.13,62.04z"/>
<path d="M119.78,59.12c0,0.99,0,1.83,0,2.85c-0.96,0-1.86,0-2.95,0c0-0.87,0-1.77,0-2.85C117.7,59.12,118.6,59.12,119.78,59.12z"/>
<path d="M142.22,61.98c0-1.01,0-1.85,0-2.86c0.98,0,1.88,0,2.97,0c0,0.89,0,1.79,0,2.86C144.29,61.98,143.39,61.98,142.22,61.98z"/>
<path d="M164.36,62.03c-1,0-1.84,0-2.9,0c0-0.93,0-1.88,0-2.95c0.97,0,1.87,0,2.9,0C164.36,60.05,164.36,60.89,164.36,62.03z"/>
<path d="M390.37,61.94c0-1.05,0-1.89,0-2.86c1.03,0,1.93,0,2.97,0c0,1,0,1.9,0,2.86C392.27,61.94,391.31,61.94,390.37,61.94z"/>
<path d="M21.29,61.94c0-0.9,0-1.74,0-2.88c0.87-0.04,1.77-0.08,2.98-0.14c0.05,1.01,0.09,1.9,0.14,3.02
	C23.34,61.94,22.38,61.94,21.29,61.94z"/>
<path d="M94.24,62.03c-1.05,0-1.9,0-2.89,0c0-1.01,0-1.91,0-2.95c1,0,1.9,0,2.89,0C94.24,60.14,94.24,61.09,94.24,62.03z"/>
<path d="M170.59,62.03c-1.06,0-1.9,0-2.89,0c0-1.02,0-1.91,0-2.95c1.01,0,1.91,0,2.89,0C170.59,60.14,170.59,61.09,170.59,62.03z"/>
<path d="M186.89,59.06c0.95,0,1.79,0,2.84,0c0,0.9,0,1.8,0,2.9c-0.83,0-1.73,0-2.84,0C186.89,61.13,186.89,60.23,186.89,59.06z"/>
<path d="M196.13,59.14c0,0.94,0,1.79,0,2.82c-0.92,0-1.82,0-2.93,0c0-0.83,0-1.73,0-2.82C194.04,59.14,194.94,59.14,196.13,59.14z"
	/>
<path d="M212.26,59.08c1.04,0,1.94,0,2.97,0c0,0.97,0,1.81,0,2.86c-0.93,0-1.89,0-2.97,0C212.26,60.99,212.26,60.09,212.26,59.08z"
	/>
<path d="M218.56,62c0-1.08,0-1.93,0-2.91c1.01,0,1.91,0,2.97,0c0,0.97,0,1.86,0,2.91C220.56,62,219.66,62,218.56,62z"/>
<path d="M539.73,59.09c0,1.08,0,1.92,0,2.91c-1.01,0-1.91,0-2.97,0c0-0.96,0-1.86,0-2.91C537.73,59.09,538.63,59.09,539.73,59.09z"
	/>
<path d="M546.05,59.14c0,0.95,0,1.79,0,2.82c-0.92,0-1.82,0-2.93,0c0-0.83,0-1.73,0-2.82C543.96,59.14,544.86,59.14,546.05,59.14z"
	/>
<path d="M565.12,62.05c-1.06,0-1.91,0-2.91,0c0-0.99,0-1.89,0-2.95c0.94,0,1.84,0,2.91,0C565.12,60.04,565.12,60.93,565.12,62.05z"
	/>
<path d="M237.8,59.06c0.93,0,1.77,0,2.8,0c0,0.9,0,1.79,0,2.89c-0.82,0-1.71,0-2.8,0C237.8,61.13,237.8,60.24,237.8,59.06z"/>
<path d="M571.51,59.11c0,1.02,0,1.87,0,2.87c-0.99,0-1.89,0-2.97,0c0-0.91,0-1.81,0-2.87C569.45,59.11,570.35,59.11,571.51,59.11z"
	/>
<path d="M587.63,62c0-1.06,0-1.91,0-2.9c1.01,0,1.91,0,2.97,0c0,0.95,0,1.85,0,2.9C589.65,62,588.75,62,587.63,62z"/>
<path d="M266.16,59.14c0,1.04,0,1.89,0,2.87c-1.02,0-1.92,0-2.97,0c0-0.99,0-1.89,0-2.87C264.25,59.14,265.21,59.14,266.16,59.14z"
	/>
<path d="M65.87,62c0-1.07,0-1.91,0-2.9c1.01,0,1.91,0,2.97,0c0,0.95,0,1.85,0,2.9C67.89,62,66.99,62,65.87,62z"/>
<path d="M613.15,59.04c1.01,0,1.85,0,2.88,0c0,0.96,0,1.86,0,2.94c-0.89,0-1.79,0-2.88,0C613.15,61.09,613.15,60.2,613.15,59.04z"/>
<path d="M641.52,59.14c0,1.04,0,1.89,0,2.87c-1.02,0-1.92,0-2.97,0c0-0.99,0-1.89,0-2.87C639.61,59.14,640.57,59.14,641.52,59.14z"
	/>
<path d="M288.59,62c0-1.06,0-1.91,0-2.9c1.01,0,1.91,0,2.97,0c0,0.95,0,1.85,0,2.9C290.61,62,289.71,62,288.59,62z"/>
<path d="M418.79,62.02c-1.03,0-1.93,0-2.97,0c0-1.02,0-1.91,0-2.94c1.03,0,1.93,0,2.97,0C418.79,60.09,418.79,60.99,418.79,62.02z"
	/>
<path d="M444.16,62.03c-1.05,0-1.9,0-2.89,0c0-1.01,0-1.91,0-2.95c1,0,1.9,0,2.89,0C444.16,60.14,444.16,61.09,444.16,62.03z"/>
<path d="M317,62.05c-1.07,0-1.91,0-2.92,0c0-0.99,0-1.89,0-2.95c0.95,0,1.85,0,2.92,0C317,60.04,317,60.94,317,62.05z"/>
<path d="M469.7,59.1c0,1.06,0,1.9,0,2.9c-1.01,0-1.91,0-2.97,0c0-0.95,0-1.84,0-2.9C467.68,59.1,468.58,59.1,469.7,59.1z"/>
<path d="M488.77,62.05c-0.99,0-1.85,0-2.89,0c0-0.94,0-1.85,0-2.93c0.87,0,1.78,0,2.89,0C488.77,59.98,488.77,60.88,488.77,62.05z"
	/>
<path d="M495.18,59.13c0,0.97,0,1.81,0,2.84c-0.95,0-1.85,0-2.95,0c0-0.85,0-1.75,0-2.84C493.1,59.13,494,59.13,495.18,59.13z"/>
<path d="M342.36,62.04c-1.05,0-1.9,0-2.89,0c0-1.01,0-1.91,0-2.95c0.99,0,1.89,0,2.89,0C342.36,60.13,342.36,61.08,342.36,62.04z"/>
<path d="M15.04,59.05c0.97,0,1.82,0,2.86,0c0,0.93,0,1.83,0,2.92c-0.86,0-1.76,0-2.86,0C15.04,61.11,15.04,60.21,15.04,59.05z"/>
<path d="M345.83,59.04c1,0,1.84,0,2.87,0c0,0.96,0,1.86,0,2.93c-0.88,0-1.78,0-2.87,0C345.83,61.1,345.83,60.2,345.83,59.04z"/>
<path d="M40.45,61.94c0-1.05,0-1.89,0-2.86c1.03,0,1.93,0,2.97,0c0,1,0,1.9,0,2.86C42.35,61.94,41.39,61.94,40.45,61.94z"/>
<path d="M367.8,62.04c-1.05,0-1.9,0-2.89,0c0-1.01,0-1.91,0-2.95c0.99,0,1.89,0,2.89,0C367.8,60.13,367.8,61.08,367.8,62.04z"/>
<path d="M135.86,61.96c0-0.95,0-1.8,0-2.82c0.92,0,1.82,0,2.99,0c0.04,0.83,0.08,1.73,0.13,2.82
	C137.92,61.96,137.03,61.96,135.86,61.96z"/>
<path d="M113.38,59.06c0,1.07,0,1.96,0,2.97c-0.99,0-1.82,0-2.86,0c0-0.94,0-1.89,0-2.97C111.43,59.06,112.27,59.06,113.38,59.06z"
	/>
<path d="M100.66,59.14c0,0.95,0,1.79,0,2.82c-0.92,0-1.81,0-2.91,0c0-0.83,0-1.73,0-2.82C98.6,59.14,99.49,59.14,100.66,59.14z"/>
<path d="M87.94,59.06c0,1.06,0,1.96,0,2.97c-0.99,0-1.82,0-2.86,0c0-0.94,0-1.89,0-2.97C85.99,59.06,86.83,59.06,87.94,59.06z"/>
<path d="M75.2,59.08c0,1.03,0,1.92,0,2.94c-1.02,0-1.91,0-2.94,0c0-1.02,0-1.92,0-2.94C73.23,59.08,74.06,59.08,75.2,59.08z"/>
<path d="M123.15,62.03c0-1.06,0-1.96,0-2.97c0.99,0,1.83,0,2.86,0c0,0.95,0,1.89,0,2.97C125.09,62.03,124.26,62.03,123.15,62.03z"/>
<path d="M244.06,61.97c0-0.99,0-1.83,0-2.85c0.97,0,1.86,0,2.93,0c0,0.87,0,1.77,0,2.85C246.12,61.97,245.23,61.97,244.06,61.97z"/>
<path d="M256.86,62.03c0-1.06,0-1.96,0-2.97c0.97,0,1.81,0,2.86,0c0,0.95,0,1.9,0,2.97C258.79,62.03,257.96,62.03,256.86,62.03z"/>
<path d="M269.56,59.05c1.07,0,1.91,0,2.9,0c0,1,0,1.89,0,2.95c-0.94,0-1.83,0-2.9,0C269.56,61.05,269.56,60.16,269.56,59.05z"/>
<path d="M282.33,59.04c1.02,0,1.86,0,2.87,0c0,0.98,0,1.87,0,2.94c-0.92,0-1.81,0-2.87,0C282.33,61.07,282.33,60.18,282.33,59.04z"
	/>
<path d="M294.94,61.98c0-1.03,0-1.86,0-2.87c0.99,0,1.88,0,2.94,0c0,0.91,0,1.8,0,2.87C296.98,61.98,296.08,61.98,294.94,61.98z"/>
<path d="M310.68,59.16c0,1.05,0,1.88,0,2.85c-1.03,0-1.92,0-2.94,0c0-1,0-1.9,0-2.85C308.79,59.16,309.74,59.16,310.68,59.16z"/>
<path d="M323.39,59.12c0,1.02,0,1.86,0,2.87c-0.98,0-1.87,0-2.95,0c0-0.91,0-1.8,0-2.87C321.37,59.12,322.26,59.12,323.39,59.12z"/>
<path d="M450.47,62.02c-1.04,0-1.88,0-2.85,0c0-1.02,0-1.91,0-2.94c0.97,0,1.8,0,2.85,0C450.47,59.98,450.47,60.93,450.47,62.02z"/>
<path d="M59.57,62.02c0-1.04,0-1.93,0-2.95c0.96,0,1.8,0,2.86,0c0,0.93,0,1.88,0,2.95C61.53,62.02,60.69,62.02,59.57,62.02z"/>
<path d="M49.75,59.09c0,0.99,0,1.88,0,2.92c-0.98,0-1.87,0-2.92,0c0-0.99,0-1.88,0-2.92C47.82,59.09,48.71,59.09,49.75,59.09z"/>
<path d="M594.02,62.01c0-0.99,0-1.88,0-2.92c1,0,1.89,0,2.92,0c0,0.98,0,1.88,0,2.92C595.97,62.01,595.07,62.01,594.02,62.01z"/>
<path d="M422.22,59.04c0.99,0,1.83,0,2.85,0c0,0.95,0,1.85,0,2.93c-0.86,0-1.76,0-2.85,0C422.22,61.11,422.22,60.22,422.22,59.04z"
	/>
<path d="M435.02,59c0.99,0,1.77,0,2.77,0c0,1,0,1.94,0,3.02c-0.89,0-1.73,0-2.77,0C435.02,61.05,435.02,60.04,435.02,59z"/>
<path d="M399.59,62.02c-1.04,0-1.88,0-2.85,0c0-1.02,0-1.91,0-2.94c0.97,0,1.8,0,2.85,0C399.59,59.98,399.59,60.93,399.59,62.02z"/>
<path d="M460.39,59.06c1.07,0,1.91,0,2.91,0c0,1,0,1.89,0,2.94c-0.98,0-1.87,0-2.91,0C460.39,61.04,460.39,60.14,460.39,59.06z"/>
<path d="M412.4,62.05c-1.05,0-1.89,0-2.88,0c0-0.99,0-1.89,0-2.95c0.92,0,1.82,0,2.88,0C412.4,60.03,412.4,60.93,412.4,62.05z"/>
<path d="M475.97,62.04c-1.06,0-1.89,0-2.9,0c0-1,0-1.89,0-2.94c0.96,0,1.85,0,2.9,0C475.97,60.05,475.97,60.94,475.97,62.04z"/>
<path d="M619.46,62.01c0-0.99,0-1.88,0-2.92c1,0,1.89,0,2.92,0c0,0.98,0,1.88,0,2.92C621.41,62.01,620.51,62.01,619.46,62.01z"/>
<path d="M632.17,61.97c0-0.99,0-1.83,0-2.85c0.96,0,1.85,0,2.94,0c0,0.88,0,1.77,0,2.85C634.21,61.97,633.32,61.97,632.17,61.97z"/>
<path d="M606.74,61.96c0-0.95,0-1.8,0-2.82c0.92,0,1.81,0,2.99,0c0.04,0.83,0.08,1.73,0.13,2.82
	C608.8,61.96,607.91,61.96,606.74,61.96z"/>
<path d="M355.22,62.04c-1.13,0-1.97,0-2.98,0c0-0.99,0-1.89,0-2.94c0.89,0,1.72,0,2.85,0C355.12,59.96,355.16,60.85,355.22,62.04z"
	/>
<path d="M361.47,59.14c0,1.03,0,1.87,0,2.86c-0.95,0-1.78,0-2.82,0c0-0.87,0-1.76,0-2.86C359.46,59.14,360.34,59.14,361.47,59.14z"
	/>
<path d="M380.45,62.03c-0.96,0-1.79,0-2.79,0c0-1.01,0-1.9,0-2.94c0.93,0,1.76,0,2.79,0C380.45,59.99,380.45,60.89,380.45,62.03z"/>
<path d="M405.95,62.03c-0.97,0-1.8,0-2.77,0c0-1.01,0-1.91,0-2.94c0.92,0,1.75,0,2.77,0C405.95,60,405.95,60.89,405.95,62.03z"/>
<path d="M428.56,62.02c0-1.06,0-1.9,0-2.91c0.92,0,1.74,0,2.8,0c0,0.89,0,1.83,0,2.91C430.48,62.02,429.65,62.02,428.56,62.02z"/>
<path d="M456.88,62.02c-0.95,0-1.78,0-2.79,0c0-0.93,0-1.83,0-2.9c0.88,0,1.76,0,2.79,0C456.88,60.1,456.88,60.99,456.88,62.02z"/>
<path d="M482.27,62.03c-0.98,0-1.8,0-2.78,0c0-1.01,0-1.91,0-2.94c0.93,0,1.76,0,2.78,0C482.27,60,482.27,60.9,482.27,62.03z"/>
<path d="M498.66,59.07c1.03,0,1.86,0,2.82,0c0,1.03,0,1.92,0,2.95c-0.95,0-1.78,0-2.82,0C498.66,61.08,498.66,60.18,498.66,59.07z"
	/>
<path d="M507.83,62.02c-0.97,0-1.8,0-2.81,0c0-0.93,0-1.83,0-2.9c0.87,0,1.76,0,2.81,0C507.83,60.1,507.83,60.99,507.83,62.02z"/>
<path d="M526.86,62.03c-0.98,0-1.81,0-2.8,0c0-1.01,0-1.91,0-2.94c0.96,0,1.79,0,2.8,0C526.86,60,526.86,60.9,526.86,62.03z"/>
<path d="M530.47,59.07c0.98,0,1.81,0,2.8,0c0,1.02,0,1.91,0,2.94c-0.95,0-1.78,0-2.8,0C530.47,61.1,530.47,60.2,530.47,59.07z"/>
<path d="M2.36,59.06c0.95,0,1.78,0,2.77,0c0,0.99,0,1.89,0,2.94c-0.88,0-1.7,0-2.77,0C2.36,61.07,2.36,60.12,2.36,59.06z"/>
<path d="M11.55,59.06c0,1.1,0,1.95,0,2.94c-0.95,0-1.78,0-2.82,0c0-0.92,0-1.87,0-2.94C9.65,59.06,10.47,59.06,11.55,59.06z"/>
<path d="M555.89,59.03c0.97,0,1.74,0,2.74,0c0,0.99,0,1.93,0,3c-0.91,0-1.74,0-2.74,0C555.89,61.07,555.89,60.17,555.89,59.03z"/>
<path d="M30.57,62.07c-1.01,0-1.78,0-2.77,0c0-1.01,0-1.95,0-3.01c0.96,0,1.79,0,2.77,0C30.57,60.06,30.57,60.96,30.57,62.07z"/>
<path d="M36.94,62.08c-1.05,0-1.82,0-2.78,0c0-0.96,0-1.86,0-2.94c0.83,0,1.72,0,2.78,0C36.94,60.07,36.94,60.96,36.94,62.08z"/>
<path d="M574.89,62.02c0-1.04,0-1.89,0-2.9c0.99,0,1.88,0,2.9,0c0,0.97,0,1.87,0,2.9C576.84,62.02,576.01,62.02,574.89,62.02z"/>
<path d="M581.31,59.03c1.03,0,1.8,0,2.84,0c0.05,0.96,0.09,1.85,0.15,2.93c-1.06,0-1.95,0-2.99,0
	C581.31,61.03,581.31,60.13,581.31,59.03z"/>
<path d="M386.91,59.06c0,1.1,0,1.95,0,2.94c-0.95,0-1.78,0-2.82,0c0-0.92,0-1.87,0-2.94C385.01,59.06,385.83,59.06,386.91,59.06z"/>
<path d="M53.21,62.01c0-1.01,0-1.85,0-2.88c0.94,0,1.82,0,2.86,0c0,0.95,0,1.84,0,2.88C55.15,62.01,54.33,62.01,53.21,62.01z"/>
<path d="M600.46,61.99c0-1.02,0-1.92,0-2.93c0.98,0,1.8,0,2.8,0c0,0.98,0,1.88,0,2.93C602.39,61.99,601.57,61.99,600.46,61.99z"/>
<path d="M78.69,59.07c0.96,0,1.79,0,2.8,0c0,0.95,0,1.85,0,2.91c-0.89,0-1.78,0-2.8,0C78.69,60.99,78.69,60.1,78.69,59.07z"/>
<path d="M106.89,62.03c-0.92,0-1.74,0-2.74,0c0-0.98,0-1.88,0-2.93c0.87,0,1.69,0,2.74,0C106.89,60.02,106.89,60.96,106.89,62.03z"
	/>
<path d="M129.6,59.03c0.98,0,1.75,0,2.73,0c0,0.99,0,1.93,0,3c-0.91,0-1.73,0-2.73,0C129.6,61.06,129.6,60.16,129.6,59.03z"/>
<path d="M625.95,59.06c0.94,0,1.76,0,2.75,0c0,1,0,1.89,0,2.94c-0.89,0-1.71,0-2.75,0C625.95,61.07,625.95,60.12,625.95,59.06z"/>
<path d="M148.65,61.98c0-1.02,0-1.86,0-2.87c0.94,0,1.77,0,2.82,0c0,0.89,0,1.84,0,2.87C150.52,61.98,149.63,61.98,148.65,61.98z"/>
<path d="M155.03,61.96c0-1.04,0-1.89,0-2.87c0.94,0,1.77,0,2.88,0c0.05,0.89,0.09,1.78,0.15,2.87
	C157,61.96,156.11,61.96,155.03,61.96z"/>
<path d="M174.16,59.03c1.01,0,1.78,0,2.76,0c0,0.99,0,1.94,0,3.01c-0.91,0-1.74,0-2.76,0C174.16,61.05,174.16,60.16,174.16,59.03z"
	/>
<path d="M183.34,59.12c0,0.96,0,1.85,0,2.89c-0.94,0-1.77,0-2.79,0c0-0.91,0-1.81,0-2.89C181.4,59.12,182.28,59.12,183.34,59.12z"/>
<path d="M199.58,61.99c0-1.01,0-1.9,0-2.92c0.99,0,1.82,0,2.82,0c0,0.96,0,1.86,0,2.92C201.49,61.99,200.6,61.99,199.58,61.99z"/>
<path d="M205.97,59.03c0.97,0,1.74,0,2.74,0c0,0.99,0,1.93,0,3c-0.91,0-1.74,0-2.74,0C205.97,61.07,205.97,60.17,205.97,59.03z"/>
<path d="M227.91,59.08c0,1.03,0,1.88,0,2.9c-0.95,0-1.84,0-2.9,0c0-0.97,0-1.87,0-2.9C225.98,59.08,226.81,59.08,227.91,59.08z"/>
<path d="M231.44,59.06c0.94,0,1.77,0,2.77,0c0,1,0,1.9,0,2.94c-0.91,0-1.74,0-2.77,0C231.44,61.12,231.44,60.23,231.44,59.06z"/>
<path d="M250.49,62.01c0-1.01,0-1.85,0-2.88c0.94,0,1.82,0,2.86,0c0,0.95,0,1.84,0,2.88C252.43,62.01,251.61,62.01,250.49,62.01z"/>
<path d="M275.97,59.07c0.96,0,1.79,0,2.8,0c0,0.95,0,1.85,0,2.91c-0.89,0-1.78,0-2.8,0C275.97,60.99,275.97,60.1,275.97,59.07z"/>
<path d="M301.38,61.96c0-1.03,0-1.87,0-2.86c0.94,0,1.76,0,2.87,0c0.04,0.87,0.08,1.76,0.14,2.86
	C303.35,61.96,302.48,61.96,301.38,61.96z"/>
<path d="M329.63,59.11c0,0.99,0,1.89,0,2.91c-0.96,0-1.79,0-2.82,0c0-0.95,0-1.85,0-2.91C327.72,59.11,328.61,59.11,329.63,59.11z"
	/>
<path d="M333.15,61.97c0-0.94,0-1.84,0-2.88c0.92,0,1.74,0,2.85,0c0.04,0.91,0.09,1.8,0.14,2.88
	C335.07,61.97,334.19,61.97,333.15,61.97z"/>
<path d="M549.35,59.04c0.82-0.05,1.28-0.09,1.73-0.09c0.38,0,0.76,0.06,1.26,0.11c0,1.02,0,1.92,0,2.95c-0.93,0-1.76,0-2.86,0
	C549.44,61.1,549.4,60.21,549.35,59.04z"/>
</svg>
